<svg width="126" height="127" viewBox="0 0 126 127" fill="none" xmlns="http://www.w3.org/2000/svg">
<path d="M34.8452 3.37793C47.4536 -0.969519 59.8485 5.6061 70.7515 14.5371C76.2636 19.0523 81.5555 24.3026 86.4888 29.3711C91.4551 34.4736 96.0141 39.3447 100.182 43.252L101.406 44.4072C114.105 56.4873 128.316 73.0314 122.769 95.8252C119.561 109.016 110.458 118.618 99.9595 122.754C89.6046 126.833 77.7851 125.606 69.1294 117.116L68.7202 116.706C62.9134 110.784 59.3948 108.286 55.8491 107.932C52.2709 107.574 48.103 109.336 40.7905 113.954C32.679 119.077 25.9757 121.729 20.1802 121.129C14.1715 120.506 9.75334 116.484 6.04639 109.938V109.938C0.000853215 99.267 1.38281 86.6348 5.91455 76.1641C10.9141 64.6115 13.3538 58.9257 14.7456 53.7314C16.1253 48.5824 16.4818 43.8901 17.1616 34.2451C17.8071 25.0952 19.1489 18.3975 21.9175 13.4639C24.7578 8.40264 28.9784 5.40067 34.8452 3.37793Z" stroke="#035DF9" stroke-width="4"/>
</svg>
