<svg width="114" height="123" viewBox="0 0 114 123" fill="none" xmlns="http://www.w3.org/2000/svg">
<path d="M9.85254 5.08691C14.303 2.08842 19.387 1.22337 25.6074 2.71387C31.9189 4.22619 39.3773 8.16551 48.3428 14.8115H48.3438C54.6721 19.5016 59.3722 22.5133 64.3926 24.5186C69.4237 26.5281 74.6565 27.4793 81.9785 28.2354C89.7218 29.0339 96.005 30.5378 100.782 32.6768C105.556 34.8141 108.71 37.5308 110.416 40.7041C113.775 46.9529 112.057 56.2142 102.497 69.0352C99.6073 72.9109 97.0067 77.4337 94.4863 82.1016C91.9384 86.8204 89.5052 91.6208 86.8477 96.2988C81.6969 105.366 76.0449 113.313 68.3633 117.591L67.6133 117.993C54.4846 124.782 38.8124 119.692 32.084 106.556L31.7705 105.924C27.2088 96.4439 25.495 86.9985 23.3047 77.1934C21.1955 67.7511 18.6595 58.0937 12.5859 48.4355L11.9873 47.501L11.2256 46.3125C7.41426 40.2506 3.62112 32.4694 2.40234 24.999C1.11592 17.1139 2.71008 9.9001 9.85254 5.08691Z" stroke="#EA2129" stroke-width="4"/>
</svg>
