<svg width="141" height="129" viewBox="0 0 141 129" fill="none" xmlns="http://www.w3.org/2000/svg">
<path d="M77.0459 14.0977C86.8144 5.10784 99.2037 0.386687 110.42 2.50195C121.804 4.64892 131.346 13.705 135.513 30.8994C138.687 44.002 138.736 58.6286 136.25 71.833C133.77 85.0021 128.722 96.9923 121.482 104.651C109.519 117.308 92.5368 124.708 75.1924 126.547C57.8513 128.385 39.9659 124.682 26.1904 114.895C2.53265 98.088 -5.36999 65.526 9.69531 44.0059C15.0767 36.3186 23.5058 33.0498 41.1289 30.5859C50.2739 29.3071 56.0975 28.0172 61.1807 25.6816C66.2509 23.3521 70.7222 19.918 77.0449 14.0977H77.0459Z" stroke="#EF79D7" stroke-width="4"/>
</svg>
