<svg width="132" height="126" viewBox="0 0 132 126" fill="none" xmlns="http://www.w3.org/2000/svg">
<path d="M45.1748 5C48.9809 2.41469 54.6673 0.982912 62.8779 2.84766C70.4802 4.57348 75.4484 9.06905 81.3945 13.4883C87.2987 17.8763 93.9042 21.9016 104.228 21.4062L104.28 21.4043L104.333 21.3984C120.021 19.8142 133.035 33.7153 129.367 47.7393C128.655 50.463 127.55 53.3543 126.367 56.3721C125.202 59.3471 123.956 62.4548 123.058 65.4512C121.307 71.2878 120.589 77.6274 125.296 82.2793C127.44 84.8711 127.477 88.8856 125.707 92.084C123.986 95.1932 120.816 97.0877 116.83 95.8877C111.601 94.3134 107.617 94.271 104.883 96.8135C103.591 98.015 102.787 99.6241 102.217 101.367C101.646 103.112 101.258 105.162 100.908 107.387L100.9 107.436L100.896 107.484C99.755 118.107 88.0985 126.131 76.5039 123.498H76.5049C74.3748 123.014 72.1029 122.076 70.127 120.898C68.1253 119.706 66.5866 118.364 65.7725 117.163C61.1156 110.292 54.8357 108.673 49.4014 108.942C44.1787 109.201 39.4229 111.27 38.0879 111.665C35.0844 112.554 32.9939 112.421 31.54 111.9C30.0969 111.384 29.0576 110.405 28.293 109.181C26.6928 106.617 26.4785 103.251 26.543 102.284C26.8935 97.0298 25.7253 92.917 23.0537 89.542C20.4512 86.2542 16.5664 83.8564 11.8789 81.6816C4.56946 78.219 0.68994 70.5626 2.4043 63.3154L2.49023 62.9707C3.54135 58.9508 6.45448 55.6746 9.89355 53.1914L10.5879 52.7051C12.8209 51.1901 14.7537 49.1186 15.9199 46.3135C17.0847 43.5117 17.4215 40.1308 16.7168 36.0977C16.1566 32.892 16.9632 31.0495 18.1934 29.8545C19.5488 28.5377 21.7224 27.7099 24.3896 27.2539L24.4336 27.2461L24.4775 27.2363C28.5411 26.3545 31.653 25.1675 33.9434 23.1895C36.2879 21.1647 37.5472 18.5108 38.3164 15.1855C39.1493 11.5847 41.3211 7.61766 45.1748 5Z" stroke="#FA9F54" stroke-width="4"/>
</svg>
