<svg width="91" height="29" viewBox="0 0 91 29" fill="none" xmlns="http://www.w3.org/2000/svg">
<path opacity="0.5" d="M21.1666 17.0156C20.1079 16.7663 19.5639 16.1536 19.1133 15.4716C18.8306 15.0449 18.2099 15.0709 17.9033 15.4809C17.2033 16.4176 16.1566 17.1669 14.4999 17.1669C12.8286 17.1669 11.7786 16.2129 11.0779 15.3156C10.7846 14.9409 10.2246 14.9456 9.96792 15.3463C9.49992 16.0776 8.95592 16.7509 7.83325 17.0156M21.1666 20.3489C20.1079 20.0996 19.5639 19.4869 19.1133 18.8049C18.8306 18.3783 18.2099 18.4043 17.9033 18.8143C17.2033 19.7509 16.1566 20.5003 14.4999 20.5003C12.8286 20.5003 11.7786 19.5463 11.0779 18.6489C10.7846 18.2743 10.2246 18.2789 9.96792 18.6796C9.49992 19.4109 8.95592 20.0843 7.83325 20.3489" stroke="#035DF9" stroke-linecap="round" stroke-linejoin="round"/>
<path d="M9.1665 14.1667L11.4845 12.776C11.6093 12.7011 11.7163 12.5999 11.7979 12.4795C11.8796 12.359 11.934 12.2222 11.9573 12.0785C11.9806 11.9348 11.9722 11.7878 11.9328 11.6477C11.8934 11.5076 11.8239 11.3778 11.7292 11.2673L11.0705 10.5C10.9056 10.3104 10.8228 10.063 10.8403 9.81234C10.8578 9.56166 10.9742 9.32821 11.1638 9.16333C11.3535 8.99846 11.6008 8.91566 11.8515 8.93317C12.1022 8.95067 12.3356 9.06704 12.5005 9.25667L16.8332 14.1667M17.8332 11.8333C18.2752 11.8333 18.6991 11.6577 19.0117 11.3452C19.3242 11.0326 19.4998 10.6087 19.4998 10.1667C19.4998 9.72464 19.3242 9.30072 19.0117 8.98816C18.6991 8.67559 18.2752 8.5 17.8332 8.5C17.3911 8.5 16.9672 8.67559 16.6547 8.98816C16.3421 9.30072 16.1665 9.72464 16.1665 10.1667C16.1665 10.6087 16.3421 11.0326 16.6547 11.3452C16.9672 11.6577 17.3911 11.8333 17.8332 11.8333Z" stroke="#035DF9" stroke-linecap="round" stroke-linejoin="round"/>
<g clip-path="url(#clip0_62885_10276)">
<path d="M0 14.5C0 6.49187 6.49187 0 14.5 0H23.8824C26.7088 0 29 2.29125 29 5.11765V23.8824C29 26.7088 26.7088 29 23.8824 29H14.5C6.49187 29 0 22.5081 0 14.5Z" fill="#035DF9"/>
</g>
<rect x="29" width="33" height="29" rx="6" fill="#035DF9"/>
<path d="M42.632 18.5C42.072 18.5 41.616 18.416 41.264 18.248C40.912 18.072 40.652 17.808 40.484 17.456C40.316 17.104 40.232 16.66 40.232 16.124H41.444C41.444 16.396 41.472 16.604 41.528 16.748C41.584 16.892 41.696 16.992 41.864 17.048C42.04 17.096 42.296 17.12 42.632 17.12H43.124V18.5H42.632ZM37.712 20.972C37.12 20.972 36.592 20.864 36.128 20.648C35.672 20.432 35.284 20.132 34.964 19.748C34.644 19.364 34.4 18.92 34.232 18.416C34.064 17.904 33.98 17.352 33.98 16.76C33.98 16.408 34.008 16.052 34.064 15.692C34.12 15.332 34.196 14.988 34.292 14.66L35.444 14.876C35.364 15.212 35.3 15.536 35.252 15.848C35.212 16.152 35.192 16.456 35.192 16.76C35.192 17.352 35.292 17.86 35.492 18.284C35.7 18.708 35.992 19.032 36.368 19.256C36.752 19.48 37.2 19.592 37.712 19.592C38.232 19.592 38.68 19.48 39.056 19.256C39.432 19.032 39.72 18.708 39.92 18.284C40.128 17.86 40.232 17.352 40.232 16.76V8.66H41.444V16.76C41.444 17.352 41.36 17.904 41.192 18.416C41.024 18.92 40.78 19.364 40.46 19.748C40.14 20.132 39.748 20.432 39.284 20.648C38.828 20.864 38.304 20.972 37.712 20.972ZM43.124 18.5V17.12C43.212 17.12 43.272 17.184 43.304 17.312C43.344 17.432 43.364 17.596 43.364 17.804C43.364 18.012 43.344 18.18 43.304 18.308C43.272 18.436 43.212 18.5 43.124 18.5ZM49.4091 18.5C48.8491 18.5 48.3931 18.416 48.0411 18.248C47.6891 18.072 47.4291 17.808 47.2611 17.456C47.0931 17.104 47.0091 16.66 47.0091 16.124V16.1H48.2211V16.124C48.2211 16.396 48.2491 16.604 48.3051 16.748C48.3611 16.892 48.4731 16.992 48.6411 17.048C48.8171 17.096 49.0731 17.12 49.4091 17.12H49.9011V18.5H49.4091ZM43.1211 18.5C43.0331 18.5 42.9731 18.436 42.9411 18.308C42.9011 18.18 42.8811 18.008 42.8811 17.792C42.8811 17.584 42.9011 17.42 42.9411 17.3C42.9731 17.18 43.0331 17.12 43.1211 17.12V18.5ZM43.1211 18.5V17.12H45.2091C45.5931 17.12 45.9171 17.076 46.1811 16.988C46.4531 16.892 46.6571 16.768 46.7931 16.616C46.9371 16.456 47.0091 16.28 47.0091 16.088C47.0091 15.96 46.9731 15.828 46.9011 15.692C46.8371 15.556 46.7051 15.392 46.5051 15.2C46.3131 15.008 46.0251 14.764 45.6411 14.468C45.2571 14.164 44.7451 13.784 44.1051 13.328L43.5051 12.872L44.3091 11.828L45.1491 12.452C45.6691 12.836 46.1211 13.18 46.5051 13.484C46.8971 13.78 47.2171 14.064 47.4651 14.336C47.7211 14.608 47.9091 14.884 48.0291 15.164C48.1571 15.444 48.2211 15.752 48.2211 16.088C48.2211 16.6 48.0891 17.036 47.8251 17.396C47.5611 17.756 47.2011 18.032 46.7451 18.224C46.2891 18.408 45.7771 18.5 45.2091 18.5H43.1211ZM43.5051 12.872V11.384L48.7011 8.984V10.484L43.5051 12.872ZM49.9011 18.5V17.12C49.9891 17.12 50.0491 17.184 50.0811 17.312C50.1211 17.432 50.1411 17.596 50.1411 17.804C50.1411 18.012 50.1211 18.18 50.0811 18.308C50.0491 18.436 49.9891 18.5 49.9011 18.5ZM49.9062 18.5V17.12H51.4663V8.66H52.6783V18.5H49.9062ZM49.9062 18.5C49.8182 18.5 49.7582 18.436 49.7262 18.308C49.6862 18.18 49.6662 18.008 49.6662 17.792C49.6662 17.584 49.6862 17.42 49.7262 17.3C49.7582 17.18 49.8182 17.12 49.9062 17.12V18.5ZM54.3584 18.5V8.66H55.5704V18.5H54.3584Z" fill="white"/>
<g clip-path="url(#clip1_62885_10276)">
<path d="M91 14.5C91 6.49187 84.5081 0 76.5 0H67.1176C64.2912 0 62 2.29125 62 5.11765V23.8824C62 26.7088 64.2912 29 67.1176 29H76.5C84.5081 29 91 22.5081 91 14.5Z" fill="#035DF9"/>
</g>
<defs>
<clipPath id="clip0_62885_10276">
<path d="M0 14.5C0 6.49187 6.49187 0 14.5 0H23.8824C26.7088 0 29 2.29125 29 5.11765V23.8824C29 26.7088 26.7088 29 23.8824 29H14.5C6.49187 29 0 22.5081 0 14.5Z" fill="white"/>
</clipPath>
<clipPath id="clip1_62885_10276">
<path d="M91 14.5C91 6.49187 84.5081 0 76.5 0H67.1176C64.2912 0 62 2.29125 62 5.11765V23.8824C62 26.7088 64.2912 29 67.1176 29H76.5C84.5081 29 91 22.5081 91 14.5Z" fill="white"/>
</clipPath>
</defs>
</svg>
