<svg width="117" height="29" viewBox="0 0 117 29" fill="none" xmlns="http://www.w3.org/2000/svg">
<rect x="0.5" y="0.5" width="88" height="28" rx="5.5" fill="white"/>
<rect x="0.5" y="0.5" width="88" height="28" rx="5.5" stroke="#E9EBED"/>
<path d="M16.228 18.5V17.12H17.392V18.5H16.228ZM14.752 18.5V15.356C14.752 14.988 14.656 14.668 14.464 14.396C14.28 14.116 14.012 13.9 13.66 13.748C13.308 13.588 12.888 13.508 12.4 13.508C12.016 13.508 11.64 13.552 11.272 13.64C10.912 13.728 10.596 13.836 10.324 13.964L9.832 12.872C10.224 12.624 10.64 12.44 11.08 12.32C11.52 12.192 11.968 12.128 12.424 12.128C12.944 12.128 13.42 12.208 13.852 12.368C14.284 12.52 14.656 12.74 14.968 13.028C15.288 13.316 15.532 13.66 15.7 14.06C15.876 14.452 15.964 14.884 15.964 15.356V18.5H14.752ZM12.244 22.916C11.828 22.916 11.424 22.856 11.032 22.736C10.648 22.616 10.3 22.436 9.988 22.196C9.676 21.964 9.428 21.676 9.244 21.332C9.068 20.996 8.98 20.608 8.98 20.168C8.98 19.784 9.056 19.408 9.208 19.04C9.36 18.68 9.588 18.356 9.892 18.068C10.196 17.78 10.576 17.552 11.032 17.384C11.488 17.208 12.02 17.12 12.628 17.12V18.5C12.132 18.5 11.7 18.572 11.332 18.716C10.972 18.868 10.692 19.064 10.492 19.304C10.292 19.552 10.192 19.824 10.192 20.12C10.192 20.4 10.276 20.644 10.444 20.852C10.62 21.068 10.864 21.236 11.176 21.356C11.488 21.476 11.848 21.536 12.256 21.536C12.48 21.536 12.704 21.516 12.928 21.476C13.152 21.444 13.364 21.396 13.564 21.332L13.984 22.532C13.712 22.66 13.428 22.756 13.132 22.82C12.844 22.884 12.548 22.916 12.244 22.916ZM12.628 18.5V17.12H16.492L16.276 18.5H12.628ZM17.392 18.5V17.12C17.48 17.12 17.54 17.184 17.572 17.312C17.612 17.432 17.632 17.596 17.632 17.804C17.632 18.012 17.612 18.18 17.572 18.308C17.54 18.436 17.48 18.5 17.392 18.5ZM17.3945 18.5V17.12H18.0065C18.3505 17.12 18.6065 17.096 18.7745 17.048C18.9425 16.992 19.0545 16.892 19.1105 16.748C19.1665 16.604 19.1945 16.396 19.1945 16.124V12.716H20.4065V16.124C20.4065 16.66 20.3225 17.104 20.1545 17.456C19.9865 17.808 19.7265 18.072 19.3745 18.248C19.0225 18.416 18.5665 18.5 18.0065 18.5H17.3945ZM21.5945 18.5C21.0345 18.5 20.5785 18.416 20.2265 18.248C19.8745 18.072 19.6145 17.808 19.4465 17.456C19.2785 17.104 19.1945 16.66 19.1945 16.124H20.4065C20.4065 16.396 20.4345 16.604 20.4905 16.748C20.5465 16.892 20.6585 16.992 20.8265 17.048C21.0025 17.096 21.2585 17.12 21.5945 17.12H22.0865V18.5H21.5945ZM22.0865 18.5V17.12C22.1745 17.12 22.2345 17.184 22.2665 17.312C22.3065 17.432 22.3265 17.596 22.3265 17.804C22.3265 18.012 22.3065 18.18 22.2665 18.308C22.2345 18.436 22.1745 18.5 22.0865 18.5ZM17.3945 18.5C17.3065 18.5 17.2465 18.436 17.2145 18.308C17.1745 18.18 17.1545 18.008 17.1545 17.792C17.1545 17.584 17.1745 17.42 17.2145 17.3C17.2465 17.18 17.3065 17.12 17.3945 17.12V18.5ZM19.8065 21.716C19.5825 21.716 19.3905 21.636 19.2305 21.476C19.0785 21.324 19.0025 21.136 19.0025 20.912C19.0025 20.68 19.0785 20.488 19.2305 20.336C19.3905 20.184 19.5825 20.108 19.8065 20.108C20.0385 20.108 20.2305 20.184 20.3825 20.336C20.5345 20.488 20.6105 20.68 20.6105 20.912C20.6105 21.136 20.5345 21.324 20.3825 21.476C20.2305 21.636 20.0385 21.716 19.8065 21.716ZM32.63 18.5C32.07 18.5 31.614 18.416 31.262 18.248C30.91 18.072 30.65 17.808 30.482 17.456C30.314 17.104 30.23 16.66 30.23 16.124H31.442C31.442 16.396 31.47 16.604 31.526 16.748C31.582 16.892 31.694 16.992 31.862 17.048C32.038 17.096 32.294 17.12 32.63 17.12H33.122V18.5H32.63ZM22.082 18.5C21.994 18.5 21.934 18.436 21.902 18.308C21.862 18.18 21.842 18.008 21.842 17.792C21.842 17.584 21.862 17.42 21.902 17.3C21.934 17.18 21.994 17.12 22.082 17.12V18.5ZM29.39 18.5C29.126 18.5 28.866 18.452 28.61 18.356C28.362 18.26 28.134 18.108 27.926 17.9C27.718 17.684 27.554 17.412 27.434 17.084L28.238 16.532C28.31 16.74 28.438 16.9 28.622 17.012C28.814 17.124 29.014 17.18 29.222 17.18C29.478 17.18 29.71 17.096 29.918 16.928C30.126 16.752 30.23 16.484 30.23 16.124V12.716H31.442V16.124C31.442 16.66 31.342 17.104 31.142 17.456C30.942 17.808 30.686 18.072 30.374 18.248C30.062 18.416 29.734 18.5 29.39 18.5ZM22.082 18.5V17.12H22.682C23.026 17.12 23.282 17.096 23.45 17.048C23.618 16.992 23.73 16.892 23.786 16.748C23.842 16.604 23.87 16.396 23.87 16.124V13.904H25.082V16.124C25.082 16.66 24.998 17.104 24.83 17.456C24.662 17.808 24.402 18.072 24.05 18.248C23.698 18.416 23.242 18.5 22.682 18.5H22.082ZM26.21 18.5C25.946 18.5 25.686 18.452 25.43 18.356C25.182 18.26 24.954 18.108 24.746 17.9C24.538 17.684 24.374 17.412 24.254 17.084L25.058 16.532C25.13 16.74 25.258 16.9 25.442 17.012C25.634 17.124 25.834 17.18 26.042 17.18C26.298 17.18 26.53 17.096 26.738 16.928C26.946 16.752 27.05 16.484 27.05 16.124V13.304H28.262V16.124C28.262 16.66 28.162 17.104 27.962 17.456C27.762 17.808 27.506 18.072 27.194 18.248C26.882 18.416 26.554 18.5 26.21 18.5ZM33.122 18.5V17.12C33.21 17.12 33.27 17.184 33.302 17.312C33.342 17.432 33.362 17.596 33.362 17.804C33.362 18.012 33.342 18.18 33.302 18.308C33.27 18.436 33.21 18.5 33.122 18.5ZM33.1211 18.5V17.12C33.5051 17.12 33.8251 17.044 34.0811 16.892C34.3371 16.74 34.5611 16.532 34.7531 16.268C34.9531 16.004 35.1451 15.708 35.3291 15.38C35.5131 15.06 35.7091 14.744 35.9171 14.432C36.1251 14.12 36.3531 13.836 36.6011 13.58C36.8491 13.324 37.1251 13.12 37.4291 12.968C37.7331 12.808 38.0771 12.728 38.4611 12.728C38.8851 12.728 39.2451 12.82 39.5411 13.004C39.8451 13.18 40.0891 13.42 40.2731 13.724C40.4571 14.02 40.5891 14.352 40.6691 14.72C40.7571 15.088 40.8011 15.46 40.8011 15.836C40.8011 16.244 40.7451 16.708 40.6331 17.228C40.5211 17.74 40.3371 18.22 40.0811 18.668L39.0251 17.984C39.2091 17.664 39.3491 17.32 39.4451 16.952C39.5411 16.584 39.5891 16.212 39.5891 15.836C39.5891 15.244 39.4931 14.808 39.3011 14.528C39.1091 14.248 38.8291 14.108 38.4611 14.108C38.2291 14.108 38.0091 14.168 37.8011 14.288C37.6011 14.4 37.3891 14.6 37.1651 14.888C36.9411 15.168 36.6771 15.564 36.3731 16.076C36.0531 16.62 35.7371 17.072 35.4251 17.432C35.1211 17.792 34.7851 18.06 34.4171 18.236C34.0571 18.412 33.6251 18.5 33.1211 18.5ZM40.0211 17.288L40.0811 18.668C39.3611 18.708 38.7371 18.7 38.2091 18.644C37.6811 18.596 37.2171 18.504 36.8171 18.368C36.4251 18.232 36.0731 18.06 35.7611 17.852C35.4571 17.636 35.1731 17.392 34.9091 17.12L35.7851 16.16C36.0811 16.464 36.4131 16.708 36.7811 16.892C37.1571 17.068 37.6051 17.188 38.1251 17.252C38.6531 17.316 39.2851 17.328 40.0211 17.288ZM33.1211 18.5C33.0331 18.5 32.9731 18.436 32.9411 18.308C32.9011 18.18 32.8811 18.008 32.8811 17.792C32.8811 17.584 32.9011 17.42 32.9411 17.3C32.9731 17.18 33.0331 17.12 33.1211 17.12V18.5ZM50.3618 21.836C49.2978 21.836 48.3818 21.684 47.6138 21.38C46.8458 21.084 46.2578 20.64 45.8498 20.048C45.4418 19.456 45.2378 18.724 45.2378 17.852C45.2378 17.596 45.2538 17.336 45.2858 17.072C45.3258 16.8 45.3778 16.516 45.4418 16.22L46.5818 16.448C46.5338 16.744 46.4978 17 46.4738 17.216C46.4578 17.432 46.4498 17.616 46.4498 17.768C46.4498 18.664 46.7698 19.336 47.4098 19.784C48.0578 20.232 49.0258 20.456 50.3138 20.456C51.0818 20.456 51.7418 20.384 52.2938 20.24C52.8538 20.104 53.2858 19.92 53.5898 19.688C53.8938 19.456 54.0458 19.204 54.0458 18.932C54.0458 18.812 54.0138 18.704 53.9498 18.608C53.8858 18.52 53.7778 18.436 53.6258 18.356C53.4738 18.276 53.2738 18.192 53.0258 18.104C52.7858 18.008 52.4858 17.896 52.1258 17.768C51.7418 17.632 51.3818 17.492 51.0458 17.348C50.7098 17.196 50.4098 17.02 50.1458 16.82C49.8898 16.62 49.6858 16.376 49.5338 16.088C49.3898 15.792 49.3178 15.44 49.3178 15.032C49.3178 14.632 49.3858 14.276 49.5218 13.964C49.6658 13.652 49.8618 13.388 50.1098 13.172C50.3578 12.948 50.6498 12.78 50.9858 12.668C51.3298 12.548 51.7058 12.488 52.1138 12.488C52.6258 12.488 53.1498 12.58 53.6858 12.764C54.2298 12.948 54.7578 13.216 55.2698 13.568L54.5858 14.708C54.1298 14.396 53.6818 14.18 53.2418 14.06C52.8018 13.932 52.4178 13.868 52.0898 13.868C51.6658 13.868 51.2978 13.96 50.9858 14.144C50.6818 14.328 50.5298 14.604 50.5298 14.972C50.5298 15.18 50.5818 15.36 50.6858 15.512C50.7978 15.664 50.9458 15.796 51.1298 15.908C51.3138 16.02 51.5218 16.12 51.7538 16.208C51.9938 16.288 52.2418 16.372 52.4978 16.46C52.8258 16.564 53.1538 16.68 53.4818 16.808C53.8098 16.936 54.1058 17.092 54.3698 17.276C54.6418 17.46 54.8578 17.688 55.0178 17.96C55.1778 18.224 55.2578 18.552 55.2578 18.944C55.2578 19.336 55.1738 19.684 55.0058 19.988C54.8378 20.3 54.6018 20.572 54.2978 20.804C54.0018 21.036 53.6498 21.228 53.2418 21.38C52.8338 21.532 52.3858 21.644 51.8978 21.716C51.4098 21.796 50.8978 21.836 50.3618 21.836ZM51.2138 24.764C51.0058 24.764 50.8298 24.692 50.6858 24.548C50.5498 24.404 50.4818 24.232 50.4818 24.032C50.4818 23.816 50.5498 23.64 50.6858 23.504C50.8298 23.368 51.0058 23.3 51.2138 23.3C51.4218 23.3 51.5938 23.368 51.7298 23.504C51.8738 23.64 51.9458 23.816 51.9458 24.032C51.9458 24.232 51.8738 24.404 51.7298 24.548C51.5938 24.692 51.4218 24.764 51.2138 24.764ZM49.5098 24.764C49.3018 24.764 49.1258 24.692 48.9818 24.548C48.8458 24.404 48.7778 24.232 48.7778 24.032C48.7778 23.816 48.8458 23.64 48.9818 23.504C49.1258 23.368 49.3018 23.3 49.5098 23.3C49.7178 23.3 49.8898 23.368 50.0258 23.504C50.1698 23.64 50.2418 23.816 50.2418 24.032C50.2418 24.232 50.1698 24.404 50.0258 24.548C49.8898 24.692 49.7178 24.764 49.5098 24.764ZM61.5644 18.5V17.12H63.3164V18.5H61.5644ZM63.3164 18.5V17.12C63.4044 17.12 63.4644 17.184 63.4964 17.312C63.5364 17.432 63.5564 17.596 63.5564 17.804C63.5564 18.012 63.5364 18.18 63.4964 18.308C63.4644 18.436 63.4044 18.5 63.3164 18.5ZM56.9444 21.692V20.312H59.2844C59.7804 20.312 60.1364 20.212 60.3524 20.012C60.5684 19.812 60.6764 19.492 60.6764 19.052V12.968H61.8884V19.052C61.8884 19.612 61.7804 20.088 61.5644 20.48C61.3564 20.88 61.0564 21.18 60.6644 21.38C60.2804 21.588 59.8204 21.692 59.2844 21.692H56.9444ZM59.5484 18.5C58.9244 18.5 58.3804 18.364 57.9164 18.092C57.4604 17.82 57.1044 17.456 56.8484 17C56.5924 16.536 56.4644 16.028 56.4644 15.476C56.4644 15.028 56.5444 14.616 56.7044 14.24C56.8644 13.856 57.0884 13.524 57.3764 13.244C57.6644 12.956 57.9964 12.732 58.3724 12.572C58.7484 12.412 59.1524 12.332 59.5844 12.332C60.0084 12.332 60.4204 12.4 60.8204 12.536C61.2204 12.664 61.5764 12.808 61.8884 12.968L61.3484 14.204C60.6924 13.876 60.1044 13.712 59.5844 13.712C59.2244 13.712 58.9004 13.792 58.6124 13.952C58.3244 14.104 58.0964 14.312 57.9284 14.576C57.7604 14.84 57.6764 15.14 57.6764 15.476C57.6764 15.796 57.7524 16.08 57.9044 16.328C58.0644 16.576 58.2844 16.772 58.5644 16.916C58.8444 17.052 59.1724 17.12 59.5484 17.12H61.2764V18.5H59.5484ZM63.3203 18.5V17.12H63.9323C64.2763 17.12 64.5323 17.096 64.7003 17.048C64.8683 16.992 64.9803 16.892 65.0363 16.748C65.0923 16.604 65.1203 16.396 65.1203 16.124V12.716H66.3323V16.124C66.3323 16.66 66.2483 17.104 66.0803 17.456C65.9123 17.808 65.6523 18.072 65.3003 18.248C64.9483 18.416 64.4923 18.5 63.9323 18.5H63.3203ZM67.5203 18.5C66.9603 18.5 66.5043 18.416 66.1523 18.248C65.8003 18.072 65.5403 17.808 65.3723 17.456C65.2043 17.104 65.1203 16.66 65.1203 16.124H66.3323C66.3323 16.396 66.3603 16.604 66.4163 16.748C66.4723 16.892 66.5843 16.992 66.7523 17.048C66.9283 17.096 67.1843 17.12 67.5203 17.12H68.0123V18.5H67.5203ZM68.0123 18.5V17.12C68.1003 17.12 68.1603 17.184 68.1923 17.312C68.2323 17.432 68.2523 17.596 68.2523 17.804C68.2523 18.012 68.2323 18.18 68.1923 18.308C68.1603 18.436 68.1003 18.5 68.0123 18.5ZM63.3203 18.5C63.2323 18.5 63.1723 18.436 63.1403 18.308C63.1003 18.18 63.0803 18.008 63.0803 17.792C63.0803 17.584 63.1003 17.42 63.1403 17.3C63.1723 17.18 63.2323 17.12 63.3203 17.12V18.5ZM66.5843 11.252C66.3763 11.252 66.2003 11.184 66.0563 11.048C65.9203 10.904 65.8523 10.728 65.8523 10.52C65.8523 10.304 65.9203 10.128 66.0563 9.992C66.2003 9.856 66.3763 9.788 66.5843 9.788C66.7923 9.788 66.9643 9.856 67.1003 9.992C67.2443 10.128 67.3163 10.304 67.3163 10.52C67.3163 10.728 67.2443 10.904 67.1003 11.048C66.9643 11.184 66.7923 11.252 66.5843 11.252ZM64.8803 11.252C64.6723 11.252 64.4963 11.184 64.3523 11.048C64.2163 10.904 64.1483 10.728 64.1483 10.52C64.1483 10.304 64.2163 10.128 64.3523 9.992C64.4963 9.856 64.6723 9.788 64.8803 9.788C65.0883 9.788 65.2603 9.856 65.3963 9.992C65.5403 10.128 65.6123 10.304 65.6123 10.52C65.6123 10.728 65.5403 10.904 65.3963 11.048C65.2603 11.184 65.0883 11.252 64.8803 11.252ZM74.2478 18.5V17.12H75.9398V18.5H74.2478ZM68.0078 18.5C67.9198 18.5 67.8598 18.436 67.8278 18.308C67.7878 18.18 67.7678 18.008 67.7678 17.792C67.7678 17.584 67.7878 17.42 67.8278 17.3C67.8598 17.18 67.9198 17.12 68.0078 17.12V18.5ZM73.2998 18.5V15.356C73.2998 14.988 73.2038 14.668 73.0118 14.396C72.8278 14.116 72.5598 13.9 72.2078 13.748C71.8558 13.588 71.4358 13.508 70.9478 13.508C70.5638 13.508 70.1878 13.552 69.8198 13.64C69.4598 13.728 69.1438 13.836 68.8718 13.964L68.3798 12.872C68.7718 12.624 69.1878 12.44 69.6278 12.32C70.0678 12.192 70.5158 12.128 70.9718 12.128C71.4918 12.128 71.9678 12.208 72.3998 12.368C72.8318 12.52 73.2038 12.74 73.5158 13.028C73.8358 13.316 74.0798 13.66 74.2478 14.06C74.4238 14.452 74.5118 14.884 74.5118 15.356V18.5H73.2998ZM68.0078 18.5V17.12H75.0398L74.8238 18.5H68.0078ZM75.9398 18.5V17.12C76.0278 17.12 76.0878 17.184 76.1198 17.312C76.1598 17.432 76.1798 17.596 76.1798 17.804C76.1798 18.012 76.1598 18.18 76.1198 18.308C76.0878 18.436 76.0278 18.5 75.9398 18.5ZM77.6214 12.716H78.8334V18.5H75.9414V17.12H77.6214V12.716ZM75.9414 18.5C75.8534 18.5 75.7934 18.436 75.7614 18.308C75.7214 18.18 75.7014 18.008 75.7014 17.792C75.7014 17.584 75.7214 17.42 75.7614 17.3C75.7934 17.18 75.8534 17.12 75.9414 17.12V18.5ZM78.6174 21.428C78.4094 21.428 78.2334 21.356 78.0894 21.212C77.9534 21.068 77.8854 20.896 77.8854 20.696C77.8854 20.48 77.9534 20.304 78.0894 20.168C78.2334 20.032 78.4094 19.964 78.6174 19.964C78.8254 19.964 78.9974 20.032 79.1334 20.168C79.2774 20.304 79.3494 20.48 79.3494 20.696C79.3494 20.896 79.2774 21.068 79.1334 21.212C78.9974 21.356 78.8254 21.428 78.6174 21.428ZM76.9134 21.428C76.7054 21.428 76.5294 21.356 76.3854 21.212C76.2494 21.068 76.1814 20.896 76.1814 20.696C76.1814 20.48 76.2494 20.304 76.3854 20.168C76.5294 20.032 76.7054 19.964 76.9134 19.964C77.1214 19.964 77.2934 20.032 77.4294 20.168C77.5734 20.304 77.6454 20.48 77.6454 20.696C77.6454 20.896 77.5734 21.068 77.4294 21.212C77.2934 21.356 77.1214 21.428 76.9134 21.428Z" fill="#035DF9"/>
<path d="M102.5 0.5H93.1172C90.5673 0.500248 88.5002 2.5673 88.5 5.11719V23.8828C88.5002 26.4327 90.5673 28.4998 93.1172 28.5H102.5C110.232 28.5 116.5 22.232 116.5 14.5C116.5 6.76801 110.232 0.5 102.5 0.5Z" fill="white"/>
<path d="M102.5 0.5H93.1172C90.5673 0.500248 88.5002 2.5673 88.5 5.11719V23.8828C88.5002 26.4327 90.5673 28.4998 93.1172 28.5H102.5C110.232 28.5 116.5 22.232 116.5 14.5C116.5 6.76801 110.232 0.5 102.5 0.5Z" stroke="#E9EBED"/>
<path opacity="0.5" d="M109.167 17.0156C108.108 16.7663 107.564 16.1536 107.113 15.4716C106.831 15.0449 106.21 15.0709 105.903 15.4809C105.203 16.4176 104.157 17.1669 102.5 17.1669C100.829 17.1669 99.7786 16.2129 99.0779 15.3156C98.7846 14.9409 98.2246 14.9456 97.9679 15.3463C97.4999 16.0776 96.9559 16.7509 95.8333 17.0156M109.167 20.3489C108.108 20.0996 107.564 19.4869 107.113 18.8049C106.831 18.3783 106.21 18.4043 105.903 18.8143C105.203 19.7509 104.157 20.5003 102.5 20.5003C100.829 20.5003 99.7786 19.5463 99.0779 18.6489C98.7846 18.2743 98.2246 18.2789 97.9679 18.6796C97.4999 19.4109 96.9559 20.0843 95.8333 20.3489" stroke="#035DF9" stroke-linecap="round" stroke-linejoin="round"/>
<path d="M97.1665 14.1667L99.4845 12.776C99.6093 12.7011 99.7163 12.5999 99.7979 12.4795C99.8796 12.359 99.934 12.2222 99.9573 12.0785C99.9806 11.9348 99.9722 11.7878 99.9328 11.6477C99.8934 11.5076 99.8239 11.3778 99.7292 11.2673L99.0705 10.5C98.9056 10.3104 98.8228 10.063 98.8403 9.81234C98.8578 9.56166 98.9742 9.32821 99.1638 9.16333C99.3535 8.99846 99.6008 8.91566 99.8515 8.93317C100.102 8.95067 100.336 9.06704 100.501 9.25667L104.833 14.1667M105.833 11.8333C106.275 11.8333 106.699 11.6577 107.012 11.3452C107.324 11.0326 107.5 10.6087 107.5 10.1667C107.5 9.72464 107.324 9.30072 107.012 8.98816C106.699 8.67559 106.275 8.5 105.833 8.5C105.391 8.5 104.967 8.67559 104.655 8.98816C104.342 9.30072 104.167 9.72464 104.167 10.1667C104.167 10.6087 104.342 11.0326 104.655 11.3452C104.967 11.6577 105.391 11.8333 105.833 11.8333Z" stroke="#035DF9" stroke-linecap="round" stroke-linejoin="round"/>
</svg>
