<svg width="60" height="60" viewBox="0 0 60 60" fill="none" xmlns="http://www.w3.org/2000/svg">
<path d="M31.177 60L31.7712 59.9376C32.8672 59.232 36.7817 53.2436 37.8737 51.728C40.3267 52.6508 43.5285 53.5787 46.0539 54.4214C46.6842 54.6319 47.1961 54.5513 47.7421 54.1911C48.543 53.009 48.4848 46.1697 48.5932 44.2386C51.3936 43.3932 54.3204 42.7398 57.1026 41.877C57.8393 41.6485 58.032 41.2674 58.291 40.674C58.2268 39.2385 54.5572 33.6731 53.5736 31.9774C55.4164 29.9328 57.2973 27.9347 59.1442 25.8993C59.8909 25.0775 60.0555 24.7649 59.9852 23.7883C59.2746 22.6217 53.0717 19.9015 51.2751 18.9984C51.6967 16.1161 52.2507 13.4061 52.7466 10.5491C52.8831 9.75984 52.8288 9.24161 52.3531 8.62877C51.0242 7.87675 44.2954 9.10223 42.288 9.36357C41.2482 6.79897 40.2926 4.18695 39.2387 1.63228C38.8232 0.627833 38.5883 0.336505 37.697 1.49012e-06C36.2838 0.167544 31.3898 4.6203 29.8581 5.88326C28.2101 5.91851 22.5873 0.0391017 20.6823 0.560774C19.6525 1.92219 17.8438 8.34534 17.2316 10.3089C15.196 10.2469 8.20426 9.36458 7.01989 10.4574C6.33938 11.9432 8.50738 18.5541 9.06143 20.5286C6.98778 21.7352 1.51158 24.7799 0 26.128C1.22652 27.8168 5.83953 32.0045 7.64017 33.6889C1.56375 45.7068 1.28272 42.6296 13.4938 45.5763C13.8109 47.6571 13.9193 54.5019 15.3245 55.5511C16.7377 55.8748 22.9165 52.9707 24.7292 52.2229C26.837 54.8499 28.9869 57.4427 31.177 60Z" fill="#035DF9"/>
</svg>
