<svg width="60" height="60" viewBox="0 0 60 60" fill="none" xmlns="http://www.w3.org/2000/svg">
<path d="M24.91 0C27.0701 0.496535 28.2561 2.03453 30.0498 3.51362C35.1705 -1.23292 35.9096 -1.06671 38.9761 5.08738C41.9346 4.27946 45.7444 1.47486 46.5131 6.62746C46.6677 7.66051 46.799 8.70829 46.9346 9.74344C48.7537 9.89914 52.4237 9.16486 53.3598 11.1426C53.9993 12.4912 53.04 15.3484 52.6631 16.7854C59.6389 19.5437 59.605 18.6621 55.8672 25.4811C61.2844 29.75 61.4707 30.2655 55.8651 34.5681C56.5555 35.8641 57.4534 37.0634 58.04 38.372C59.5097 41.6521 55.0243 42.4011 52.6673 43.2175C53.0972 44.7807 53.9633 47.5769 53.3365 49.159C52.4153 51.4797 48.9528 49.422 47.4915 50.2594C45.9053 51.3156 46.6508 54.0634 46.1806 55.3868C45.3272 57.7895 40.4479 55.4457 39.0375 54.8923C37.805 57.0342 37.6165 58.3597 35.6533 59.9987C33.1777 60.0576 32.0214 58.1703 29.9545 56.5334C24.3764 61.0275 24.6644 61.6187 20.9223 54.8587C13.1904 57.5559 14.6326 57.5833 12.985 50.1185C5.51574 50.5645 5.97528 49.9606 7.20145 43.127C0.683039 40.8252 0.0943126 40.8926 4.1625 34.6059C1.87533 32.5483 -2.41311 30.68 1.74191 27.341C2.54877 26.693 3.37257 26.0513 4.17731 25.399C0.168422 19.2702 0.651283 19.1881 7.18452 16.8422C6.26754 10.2295 5.00113 9.57512 13.0909 9.76237C14.2154 2.29752 14.046 2.80668 21.007 5.08316C22.3052 3.02339 22.3666 0.969926 24.91 0Z" fill="#EF79D7"/>
</svg>
