<svg width="60" height="60" viewBox="0 0 60 60" fill="none" xmlns="http://www.w3.org/2000/svg">
<path d="M26.0603 60C29.9658 59.4325 29.8391 57.154 32.7123 55.3719C34.9225 54.1301 37.5529 56.9614 39.3811 57.3718C44.9058 58.6116 45.0155 53.8851 45.7481 50.2915C46.6896 46.8466 51.9145 48.769 54.0192 47.2906C58.6446 44.0383 54.2219 40.5348 54.091 37.1548C54.015 35.1591 59.4109 33.2953 59.8817 30.686C60.7641 25.7794 56.4955 25.9343 54.2493 22.9543C53.2593 21.2225 55.2331 18.2886 55.4822 16.8143C56.5335 10.6114 50.9476 11.4512 47.0992 11.0554C44.5891 10.7957 44.7707 5.60846 43.789 4.02109C42.7863 2.40231 41.7835 2.19288 40.0292 1.73217C37.2468 2.50491 35.7226 3.96454 33.0732 4.97811C29.9193 4.0148 28.8406 -0.579781 24.7388 0.0610315C21.5701 0.0359016 20.8671 5.11424 19.5751 6.16131C15.2897 9.63133 12.864 2.85464 8.01704 8.83346C7.91359 10.2303 8.34847 15.4992 7.88615 16.2991C6.25008 19.1388 -0.948651 18.253 0.10477 23.4151C0.647314 26.0705 2.92303 27.662 4.08201 30.02L4.18968 30.2441C3.20803 32.4388 0.824638 34.7235 0.389759 36.803C-0.691106 41.9798 5.48587 41.5358 7.9347 43.7054C9.67633 45.2467 7.4935 50.3062 9.13168 52.2118C11.3251 55.9604 16.8983 52.3584 18.8236 53.1061C22.3723 54.4819 20.7087 58.6535 26.0603 60Z" fill="#F64200"/>
</svg>
