<svg width="65" height="34" viewBox="0 0 65 34" fill="none" xmlns="http://www.w3.org/2000/svg">
<path d="M3.71304 20.8665C3.49792 19.9206 4.15908 15.7977 4.2801 14.5463C4.54039 12.0192 4.76986 9.53748 5.20351 7.03356C5.55154 5.02512 8.02984 4.12291 9.82561 4.20315C15.3504 4.25452 16.142 4.88454 15.3465 10.5635C14.9963 13.0635 14.9538 16.154 14.4029 18.5703L19.5783 18.5723C19.8696 15.9148 20.6565 10.2252 20.6004 7.80971L22.9314 7.80612C22.4353 10.8955 22.1996 14.7056 21.8594 17.8475C21.0407 25.4116 21.377 25.5357 13.8102 25.4014C13.4233 27.2545 13.4199 32.6913 12.2062 33.2787C9.99147 34.3507 2.62622 33.8993 0 33.8843C0.451919 31.9727 1.26067 28.9251 1.54738 27.0339C3.18708 27.0409 10.113 27.1655 11.2592 26.9491C11.5563 26.4742 11.4845 25.5975 11.4823 24.9944C7.99428 25.7778 2.484 26.1516 3.71304 20.8665Z" fill="#035DF9"/>
<path d="M10.2467 6.55078C11.348 6.56399 12.4228 6.47494 13.238 7.20591C13.6529 8.00668 12.4753 16.9954 12.2641 18.4705C11.1895 18.7539 10.8754 18.8237 9.75887 18.8805C8.18587 18.9152 7.57641 18.8805 6.08301 18.5085C6.36058 15.8792 6.59282 9.60007 7.73966 7.13725C7.98315 6.61455 9.59398 6.58503 10.2467 6.55078Z" fill="white"/>
<path d="M43.3358 0.00431761C47.2043 -0.150617 47.5158 3.90737 44.1366 5.23509C40.4443 5.4303 40.0219 1.82358 43.3358 0.00431761Z" fill="#035DF9"/>
<path d="M22.0203 0.00578946C25.6588 -0.157789 26.1 3.89368 22.6332 5.24847C18.9384 5.31435 18.6757 1.47278 22.0203 0.00578946Z" fill="#035DF9"/>
<path d="M24.8636 23.3788C24.7439 21.1578 26.1023 7.72869 26.9886 6.04675C27.4172 5.23342 28.2112 4.79846 29.0667 4.54225C30.7136 4.04907 34.1001 3.87457 35.6156 4.73388C38.8832 6.58691 35.1754 15.1767 36.0869 18.3284C36.5047 18.701 36.4744 18.5725 37.212 18.5564L40.7578 18.5772C41.1443 17.6165 41.924 9.07483 42.2176 8.1979C42.7182 7.74826 43.2385 7.79312 44.0213 7.59561C44.0963 7.69265 44.186 7.81007 44.2937 7.94821C44.155 10.6392 43.6853 14.6019 43.3445 17.183C43.2809 17.6491 43.2091 18.1139 43.1292 18.5772L47.27 18.5688C47.9191 13.6846 48.2208 9.10761 48.7574 4.30202L50.9216 4.26761C50.8319 6.04887 49.2923 17.6548 49.8615 18.4543C50.6329 18.9232 53.6794 18.9528 54.2845 18.186C54.6221 16.7859 54.9662 13.2912 55.0918 11.758C55.2793 9.45369 55.674 6.90118 55.8452 4.645C56.5335 4.64793 57.2299 4.66294 57.9132 4.61189C57.7681 6.27508 56.3329 17.8145 56.708 18.2659C57.0554 18.6826 57.6653 18.7263 58.1709 18.7558C58.9733 18.8026 60.3856 18.8852 61.0298 18.3763C62.0067 17.6042 62.5254 6.29971 63.0424 4.24119L64.9994 4.24462C64.7303 9.00128 63.9344 13.993 63.5528 18.7496C63.4452 20.0976 63.1924 23.6808 62.1568 24.3105C59.5278 25.9091 56.4617 25.9916 54.9988 23.0731C53.7822 24.3656 52.6764 25.4092 50.7373 25.4655C49.5745 25.5058 48.4427 25.0788 47.5962 24.28C47.2847 23.983 46.9112 23.4595 46.6568 23.1017C45.724 23.5534 44.4992 24.6955 43.8093 24.9508C41.5619 25.7814 37.1916 25.1163 35.2315 25.5193C34.6328 26.6691 35.017 32.1221 33.7487 33.1622C32.2567 34.3857 23.5087 33.8977 21.4727 33.8881C21.9908 31.6746 22.5972 29.2514 22.9939 27.0315C24.9261 27.0321 26.858 27.0471 28.79 27.0501C29.9967 27.0519 33.7294 27.6812 32.9892 25.4185C31.5005 24.2983 27.2403 27.0856 24.8636 23.3788Z" fill="#035DF9"/>
<path d="M29.8888 6.68239C31.2381 6.58356 33.4173 6.29896 34.5186 7.07967C35.002 8.07273 33.9938 16.913 33.5791 18.1724C33.2362 18.6587 32.9246 18.6876 32.3461 18.849C30.993 18.9027 28.8537 19.087 27.7312 18.3947C27.3088 17.5521 28.3897 8.44783 28.7488 7.30898C29.0918 6.86962 29.3647 6.83863 29.8888 6.68239Z" fill="white"/>
</svg>
