<svg width="65" height="34" viewBox="0 0 65 34" fill="none" xmlns="http://www.w3.org/2000/svg">
<path d="M9.8252 4.20312C15.35 4.2545 16.1422 4.88456 15.3467 10.5635C14.9965 13.0634 14.9542 16.154 14.4033 18.5703L19.5781 18.5723C19.8694 15.9147 20.6567 10.2251 20.6006 7.80957L22.9316 7.80566C22.4355 10.8951 22.1996 14.7057 21.8594 17.8477C21.0407 25.4115 21.377 25.5357 13.8105 25.4014C13.4237 27.2545 13.4197 32.6908 12.2061 33.2783C9.99131 34.3503 2.62622 33.8998 0 33.8848C0.451901 31.9733 1.26111 28.9254 1.54785 27.0342C3.18822 27.0412 10.1115 27.1655 11.2588 26.9492C11.5559 26.4743 11.4847 25.5972 11.4824 24.9941C7.99444 25.7775 2.48385 26.1513 3.71289 20.8662C3.49798 19.9197 4.15927 15.7972 4.28027 14.5459C4.54055 12.019 4.76949 9.53698 5.20312 7.0332C5.55132 5.02512 8.02954 4.12305 9.8252 4.20312ZM10.2471 6.55078C9.59439 6.58503 7.98275 6.61499 7.73926 7.1377C6.59262 9.60087 6.36057 15.8796 6.08301 18.5088C7.57634 18.8808 8.18588 18.9156 9.75879 18.8809C10.8751 18.8241 11.1894 18.7541 12.2637 18.4707C12.4749 16.9957 13.6529 8.00816 13.2383 7.20605C12.4231 6.47518 11.3483 6.56396 10.2471 6.55078Z" fill="#035DF9"/>
<path d="M43.3358 0.00431761C47.2043 -0.150617 47.5158 3.90737 44.1366 5.23509C40.4443 5.4303 40.0219 1.82358 43.3358 0.00431761Z" fill="#035DF9"/>
<path d="M22.0203 0.00578946C25.6588 -0.157789 26.1 3.89368 22.6332 5.24847C18.9384 5.31435 18.6757 1.47278 22.0203 0.00578946Z" fill="#035DF9"/>
<path d="M29.0664 4.54297C30.7132 4.0498 34.0997 3.87514 35.6152 4.73438C38.8827 6.58731 35.1759 15.1761 36.0869 18.3281C36.5047 18.7008 36.4744 18.5728 37.2119 18.5566L40.7578 18.5771C41.1444 17.6149 41.9242 9.07519 42.2178 8.19824C42.7184 7.74868 43.2387 7.79319 44.0215 7.5957C44.0965 7.69274 44.1863 7.81011 44.2939 7.94824C44.1553 10.6392 43.6856 14.6025 43.3447 17.1836C43.2811 17.6495 43.2088 18.114 43.1289 18.5771L47.2705 18.5693C47.9196 13.6853 48.2213 9.10817 48.7578 4.30273L50.9219 4.26758C50.8322 6.04857 49.2929 17.6515 49.8613 18.4541C50.6326 18.9229 53.6785 18.953 54.2842 18.1865C54.6218 16.7864 54.9662 13.291 55.0918 11.7578C55.2794 9.45371 55.6745 6.9015 55.8457 4.64551C56.5337 4.64845 57.2299 4.66333 57.9131 4.6123C57.7678 6.27614 56.3329 17.8152 56.708 18.2666C57.0554 18.683 57.6654 18.7263 58.1709 18.7559C58.9733 18.8027 60.3861 18.8858 61.0303 18.377C62.0071 17.6044 62.525 6.29967 63.042 4.24121L64.999 4.24512C64.7299 9.0017 63.9344 13.9934 63.5527 18.75C63.4451 20.0979 63.1925 23.6802 62.1572 24.3105C59.5282 25.9091 56.4619 25.9917 54.999 23.0732C53.7824 24.3657 52.6764 25.4096 50.7373 25.4658C49.5746 25.5061 48.4431 25.0789 47.5967 24.2803C47.2852 23.9833 46.9116 23.4594 46.6572 23.1016C45.7244 23.5533 44.4995 24.6958 43.8096 24.9512C41.5622 25.7818 37.1916 25.1165 35.2314 25.5195C34.6328 26.6692 35.0169 32.1214 33.749 33.1621C32.2571 34.3856 23.5087 33.8983 21.4727 33.8887C21.9908 31.6752 22.5973 29.2512 22.9941 27.0312C24.9262 27.0319 26.8582 27.0478 28.79 27.0508C29.9968 27.0526 33.7292 27.6814 32.9893 25.4189C31.5006 24.2987 27.24 27.0858 24.8633 23.3789C24.7436 21.1576 26.1019 7.72903 26.9883 6.04688C27.4168 5.23368 28.211 4.7992 29.0664 4.54297ZM34.5186 7.08008C33.4172 6.29937 31.2379 6.58379 29.8887 6.68262C29.3646 6.83882 29.092 6.87025 28.749 7.30957C28.3898 8.44949 27.3093 17.5509 27.7314 18.3945C28.8539 19.0868 30.9925 18.9033 32.3457 18.8496C32.9241 18.6882 33.2363 18.6591 33.5791 18.1729C33.9938 16.9135 35.0018 8.07367 34.5186 7.08008Z" fill="#035DF9"/>
</svg>
