<svg width="75" height="25" viewBox="0 0 75 25" fill="none" xmlns="http://www.w3.org/2000/svg">
<path d="M5.94336 0.0190036C6.23333 0.00410288 6.57206 -0.00550356 6.86789 0.00346252C8.58825 0.0554657 11.8698 -0.395315 11.9915 2.11621C12.0524 3.3733 11.7706 4.79361 11.63 6.05274C11.4954 7.25744 11.3877 8.47576 11.2608 9.68631L9.2874 9.67179C9.46807 8.41257 9.5483 7.13179 9.67149 5.86535C9.74847 5.07399 9.89354 4.25214 9.89687 3.45783C9.89769 3.26455 9.8705 3.04873 9.79292 2.87056C9.72176 2.70703 9.58485 2.6353 9.42456 2.57476C8.89395 2.37431 5.09952 2.35936 4.60708 2.58535C4.35195 2.70246 4.1661 2.88533 4.0719 3.14991C3.85019 3.7728 3.836 5.09641 3.76188 5.79661C3.68781 6.49708 3.45174 7.55473 3.65199 8.23364C4.19872 10.0871 9.20811 11.326 10.4027 13.876C10.5462 14.1823 10.6308 14.5046 10.6446 14.8426C10.6816 15.7491 10.5143 16.7154 10.4246 17.6183C10.281 19.0638 10.1083 21.9119 9.64345 23.1607C9.37716 23.8759 8.74969 24.3543 8.07572 24.6591C6.58485 25.1796 3.8619 24.9703 2.2987 24.8904C0.309529 24.6877 -0.201549 23.3436 0.0655949 21.5775C0.477638 18.8538 0.569578 16.1046 0.959693 13.4044L2.94271 13.4061C2.89258 14.259 2.76118 15.2055 2.67548 16.0585C2.60898 16.7202 2.42933 17.4575 2.46771 18.1197C3.29453 18.7328 4.71292 18.3986 5.72422 18.4621C6.26243 18.4959 7.8532 18.5871 8.16582 18.1882C8.55222 17.6953 8.68759 15.7879 8.66677 15.1638C8.62343 13.8662 6.35446 12.7509 5.39569 12.1526C3.87109 11.2135 1.67551 10.0419 1.56472 8.04385C1.50586 6.90533 1.83088 5.68595 1.91162 4.58312C2.14038 1.45844 2.48019 0.183168 5.94336 0.0190036Z" fill="#035DF9"/>
<path d="M22.0681 0.00552419C22.712 0.0117337 23.3561 0.00989232 24 0C23.9423 1.04426 23.7699 2.03863 23.6599 3.07073C23.5294 4.29708 23.4218 5.53516 23.3039 6.76335C22.9906 10.166 22.5406 13.568 22.2648 16.9782C22.2212 17.5169 22.1153 18.0723 22.0504 18.6144C21.8847 19.9975 21.8508 21.4122 21.5873 22.7788C21.0972 25.0681 18.6027 25.014 16.7982 24.9934C15.4231 24.9777 13.3503 25.198 12.3884 23.9993C11.7825 23.2443 12.0502 21.7994 12.1134 20.8947C12.2047 19.5544 12.4372 18.2188 12.5643 16.885L13.8746 3.79595C14.0024 2.5067 14.1827 1.33375 14.2902 0.00625212L16.1893 0.00359719C15.9642 1.84982 15.8742 3.66996 15.6112 5.54638C15.3259 7.58231 15.2415 9.83892 14.985 11.8927C14.8211 13.1725 14.6556 14.4303 14.5557 15.7201C14.5484 16.2495 14.2571 17.4544 14.6028 17.8826C14.8982 18.2484 16.5272 18.0903 16.9939 18.1035C17.8251 18.127 18.5937 18.1233 19.4097 18.0968C19.84 18.0884 20.1947 17.817 20.2563 17.3593C20.5565 15.1294 20.7821 12.8157 20.9922 10.586L22.0681 0.00552419Z" fill="#035DF9"/>
<path d="M26.5169 0.00442206C27.8324 0.0117208 29.148 0.0102612 30.4635 0C30.4724 0.5587 30.5275 1.21215 30.5538 1.7821L30.7846 6.36728L31.4446 18.1861C32.0406 18.1964 32.6574 18.188 33.2551 18.1885C33.6215 15.6333 33.7789 12.9723 34.036 10.3923L34.7871 2.86704C34.886 1.90657 35.0272 0.970823 35.1116 0.0045937C35.741 0.00764201 36.3707 0.00695489 37 0.00253269C36.8436 0.954207 36.7394 2.78951 36.6389 3.82159L35.895 11.2747L35.0538 19.7662C34.8666 21.5736 34.6673 23.1473 34.5288 24.9978C33.3389 24.9784 32.109 24.995 30.9159 24.9944L30.1327 24.9919L29.5834 12.9112C29.5332 11.911 29.4375 10.8783 29.3797 9.87103C29.26 7.56672 29.1546 5.2616 29.0635 2.95579L28.0904 2.95424C28.0014 4.19211 27.8057 5.44029 27.6915 6.69701L25.8937 24.9988C25.2624 25.0031 24.6311 24.9961 24 24.9778C24.1298 24.4683 24.1917 23.3722 24.2491 22.804C24.3934 21.3777 24.4897 19.9223 24.6411 18.4971L26.1872 2.97034C26.2816 1.97075 26.4277 1.01693 26.5169 0.00442206Z" fill="#035DF9"/>
<path d="M39.2843 0.00436846C39.9136 0.00903648 40.5425 0.00758018 41.1713 0C41.0534 1.25767 40.9392 2.52433 40.8079 3.78041C40.7367 4.46944 40.6083 5.15834 40.5525 5.84873C40.2491 9.5945 39.7431 13.315 39.4214 17.0572C39.3664 17.5462 39.5031 18.0893 40.0832 18.0973C41.4977 18.1168 42.93 18.1388 44.3441 18.0928C44.8333 18.0769 45.1484 17.8768 45.2388 17.3528C45.3618 16.6382 45.3851 15.8953 45.4793 15.1754C45.7043 13.5872 45.8373 11.9956 45.9894 10.3994L47.0392 0.00449719L49 0.00252697C48.7333 2.25765 48.5149 4.31565 48.2999 6.5829C48.1903 7.78069 48.0277 8.87549 47.906 10.0491L47.0709 18.1452C46.9429 19.2862 46.8692 20.4423 46.7445 21.5842C46.6983 21.9741 46.6641 22.3571 46.5741 22.7399C46.1294 24.6337 44.532 24.9607 42.8738 24.9821C41.7598 24.9964 40.6337 25.0284 39.5193 24.9432C38.7221 24.8822 37.9065 24.6664 37.3714 24.0111C37.0834 23.6426 36.9872 23.0113 37.0013 22.5489C37.0505 20.9731 37.2585 19.3873 37.4048 17.8179C37.466 17.1623 37.5869 16.5096 37.6523 15.8535L39.2843 0.00436846Z" fill="#035DF9"/>
<path d="M60.9544 0.00433697C61.6362 0.00781467 62.3181 0.00635433 63 0L61.5854 13.5937L60.704 21.7964C60.5871 22.8898 60.4211 23.8786 60.3294 24.9978L56.4237 24.9942L55.6536 24.9916C55.6254 24.0222 55.5106 23.0277 55.455 22.0576C55.3824 20.7903 55.3212 19.5233 55.2525 18.2553L54.4233 2.95609L53.3877 2.953C53.2621 3.71776 53.1969 4.96252 53.1052 5.78953L52.3146 13.1089L51.4068 21.6027C51.2781 22.7901 51.1091 23.7651 51.0126 24.9981C50.3416 25.0033 49.6706 24.9978 49 24.9816C49.2208 23.3198 49.3264 21.5513 49.515 19.8744L51.6867 0.00227592L55.9457 0.0028341C56.0074 2.65736 56.2647 5.31793 56.4433 7.96563C56.6732 11.3645 56.8479 14.7819 56.9957 18.1855C57.6684 18.1939 58.3607 18.187 59.0348 18.1873L60.3742 5.30621C60.5567 3.49578 60.8249 1.86452 60.9544 0.00433697Z" fill="#035DF9"/>
<path d="M69.834 0.00488281C71.2563 0.0681457 73.1864 -0.24142 74.3633 0.71875C75.2704 1.45908 74.9635 2.93384 74.8955 3.9541C74.8211 5.06654 74.6298 6.18729 74.502 7.29004L73.6963 14.8203C73.5206 16.371 73.4165 17.9225 73.2412 19.4893C73.0989 20.7623 73.0712 22.815 72.2256 23.8604C71.4804 24.7811 70.1888 24.8929 69.0781 24.9609C67.6328 24.9797 64.8059 25.2189 63.6807 24.2461C62.5982 23.31 63.1014 21.4448 63.2236 20.1816L63.9746 13.1416C64.2568 10.5436 64.4337 7.93122 64.7988 5.34277C64.9411 4.38324 64.9302 3.38028 65.1396 2.43164C65.5813 0.429424 67.24 0.104705 68.9854 0.0195312C69.2465 0.0073674 69.5732 -0.00671731 69.834 0.00488281ZM72.6465 2.2168C72.1879 1.94751 71.5669 2.00286 71.0518 2.00781C70.2592 2.01543 69.4477 2.00004 68.6562 2.01855C67.9362 2.07159 67.4647 2.39466 67.374 3.22168C67.2354 4.48786 67.1532 5.76192 67.0312 7.03027L66.3135 14.1924C66.2652 14.7719 66.2091 15.3509 66.1445 15.9287C66.097 16.3343 65.9915 17.0242 66.001 17.4131C66.0188 18.1381 67.5999 17.9881 68.0039 17.9863C68.7739 17.9802 69.5444 17.9791 70.3145 17.9824C70.8971 17.9743 71.1258 17.9659 71.5547 17.4951C71.6818 16.8711 71.7398 16.0574 71.7881 15.4102C71.9311 13.4971 72.1409 11.6184 72.3623 9.7168C72.6221 7.48893 72.718 5.21611 73 2.9873C73.0079 2.76002 72.8327 2.32608 72.6465 2.2168Z" fill="#035DF9"/>
</svg>
