<svg width="59" height="47" viewBox="0 0 59 47" fill="none" xmlns="http://www.w3.org/2000/svg">
<path d="M47.6133 6.29318C48.7442 6.29938 49.875 6.29763 51.0058 6.28809C50.6507 7.24521 50.2884 7.98394 49.8791 8.91026C49.1762 10.5024 48.6158 12.1653 47.835 13.7302C47.5856 14.2303 47.3716 14.85 47.1676 15.3747C46.3382 17.3846 45.4018 19.3397 44.6342 21.3794C44.4823 21.7825 44.1969 22.2418 44.0492 22.6324C43.3902 24.3763 42.7127 25.7531 41.3947 27.0945C40.8581 27.6406 40.5168 27.8504 39.9209 28.3045C38.1387 29.6623 36.2591 30.0341 34.0735 30.1414C33.0112 31.9299 31.863 33.4868 30.7876 35.2721C30.0557 34.4829 29.4998 33.2822 28.8675 32.3977C28.3172 31.628 27.8741 30.9771 27.396 30.1546C25.8471 30.0446 24.6533 29.9203 23.1794 29.2693C22.2007 28.8371 20.9243 27.921 20.1528 27.1879C19.8206 26.8722 18.8855 25.6368 18.6202 25.2349C18.0845 24.4233 17.5976 23.0334 17.2119 22.1166L15.0909 17.1323L11.3153 8.24198C11.0374 7.57494 10.7122 6.97519 10.4441 6.28896C11.5029 6.32641 12.7618 6.29479 13.8367 6.29593C15.0247 7.51908 16.253 8.94795 17.4026 10.2273L20.1351 13.3228L23.9503 17.5404C24.59 18.2478 25.0129 18.649 25.6497 19.4336C25.8626 19.1918 26.0274 18.8028 26.2442 18.577C28.3903 16.3424 31.4491 15.7781 34.0577 17.5864C35.1924 18.373 35.0035 18.3642 35.803 19.4324C36.2397 18.9041 36.7264 18.4131 37.184 17.9014L40.9858 13.7019L47.6133 6.29318Z" fill="#0061FE"/>
<path d="M35.7979 19.418C36.4987 20.8746 36.8932 21.8845 36.5869 23.5352C36.4677 24.026 36.1896 24.7608 35.9684 25.2126C35.3117 26.5683 34.1445 27.6029 32.7268 28.0858C31.1712 28.6113 29.4729 28.4976 27.9999 27.7694C26.7458 27.1372 25.6159 25.8537 25.1962 24.4999C24.6154 22.6269 24.7929 21.1626 25.6524 19.4494C27.2865 21.1387 28.8077 22.9478 30.4056 24.6741C30.5352 24.8142 30.6608 24.9658 30.7833 25.1126C31.2021 24.3712 32.0337 23.6649 32.5792 23.0274C33.6277 21.8017 34.7514 20.6422 35.7979 19.418Z" fill="white"/>
<path d="M10.4343 31.8511C12.0102 32.1625 13.2998 32.61 14.7861 32.9762L27.2647 36.0672C27.8406 36.2037 28.4127 36.338 28.9869 36.4875C29.4589 36.6105 30.2548 36.9326 30.708 36.9588C31.0229 36.977 31.9201 36.6509 32.2739 36.5516C32.7239 36.4295 33.1758 36.3144 33.6294 36.2064L51.0204 31.8447L51.0218 35.2268L51.0163 40.3375L10.4378 40.3392L10.4343 31.8511Z" fill="#0061FE"/>
</svg>
