<svg width="465" height="121" viewBox="0 0 465 121" fill="none" xmlns="http://www.w3.org/2000/svg">
<path d="M419.208 3.25255C420.118 -1.10506 426.708 -0.605058 426.708 3.25255C427.208 10.3949 437.5 9.89494 438.158 3.83772L438.243 3.83851C439.167 -1.60555 445.245 -0.605552 445.245 3.89445C445.245 12.3566 455.65 10.7157 459.372 2.02642C460.537 -0.690937 466.748 1.50246 464.523 10.824C464.056 15.8066 457.713 17.0182 459.77 24.1114C460.927 28.1048 465.423 27.3208 464.23 32.2054C463.026 37.1339 458.821 38.4098 460.479 45.0818C461.321 48.4762 464.568 48.1061 463.735 53.5021C462.869 59.1075 457.933 59.0003 459.961 66.32C460.839 69.4903 465.761 69.7923 464.792 74.9497C464.008 79.1233 458.544 80.4236 460.502 86.8861C461.215 89.2432 464.872 93.5584 464.098 96.1152C462.874 100.172 458.394 101.521 460.293 108.378C460.88 110.496 462.188 111.212 463.617 112.254C466.075 117.164 459.86 122.013 456.774 119.859C456.141 119.998 454.561 119.454 454.321 118.876C452.645 114.833 450.361 112.593 445.463 114.615C443.257 115.872 442.98 119.233 439.848 118.897C435.756 118.457 433.7 110.672 428.189 114.118C424.064 116.698 427.018 119.462 419.509 117.845C412.248 110.756 412.343 114.754 406.993 117.749C398.271 122.633 398.491 103.634 388.4 118.272L383.459 119.73C380.572 113.426 377.299 110.793 371.837 117.057C364.212 125.805 361.738 103.836 352.297 118.555C351.084 118.931 349.587 119.439 348.374 119.691C343.405 113.868 340.042 110.732 334.142 118.214C332.507 118.756 330.592 119.565 328.92 119.474C327.303 118.097 326.185 112.803 322.329 113.193C319.404 113.489 317.373 115.995 315.912 117.998C314.444 118.502 312.809 119.107 311.336 119.55C309.917 117.344 308.002 114.107 304.948 113.701C300.894 113.162 299.181 118.967 294.807 118.61C290.418 118.252 290.43 113.198 286.214 112.825C281.87 112.635 281.071 118.18 277.588 118.804C276.379 119.019 275.13 118.751 274.149 118.067C269.259 114.625 267.484 110.833 262.089 118.178C258.601 122.922 252.428 112.848 247.873 114.35C243.632 115.749 244.683 121.066 239.462 118.851C234.344 115.444 236.553 112.978 228.676 114.62C227.524 115.897 226.445 117.152 225.164 118.322L220.669 118.807C216.891 112.663 212.369 111.508 207.784 117.945C206.129 118.148 203.221 118.718 202.006 117.666C199.488 115.486 198.711 113.552 194.574 113.493C190.969 113.44 188.895 120.453 184.226 117.96C182.115 116.833 180.714 113.561 177.428 113.919C172.816 114.422 171.093 118.705 166.194 119.825C166.144 119.845 166.094 119.867 166.043 119.888L166.022 119.839C164.793 117.033 162.766 112.407 158.599 113.75C155.207 114.842 153.286 119.559 149.115 118.136C145.898 116.873 144.154 112.53 139.175 114.162C136.631 114.995 135.136 120.358 130.781 118.851C126.877 117.501 127.696 112.275 120.368 114.132C117.36 115.362 117.066 119.512 112.942 118.486C108.954 117.495 107.838 111.037 102.559 113.742C99.0418 115.545 95.9562 122.51 91.7091 116.078C90.084 113.617 86.5585 112.798 84.1315 114.826C82.5957 116.156 81.6313 118.371 79.2204 118.505C74.1513 119.12 73.4661 113.237 68.8889 113.024C64.8421 112.836 64.4151 117.861 61.0109 118.174C55.7072 118.663 56.0493 113.247 50.3041 113.857C45.4092 114.377 44.5022 119.918 39.2941 117.539C36.9386 116.041 35.8368 112.588 32.402 113.104C31.5869 113.227 29.9162 113.422 29.4578 114.14C29.4678 119.214 23.8775 122.139 19.2376 117.424C17.045 113.365 10.2124 114.096 8.349 118.483C5.26293 120.637 -1.07516 117.193 1.3827 112.283C2.81216 111.241 4.12 110.525 4.70681 108.406C6.60599 101.549 2.12629 100.2 0.901683 96.1437C0.1284 93.5869 3.78451 89.2717 4.49811 86.9146C6.456 80.4521 0.99204 79.1518 0.207789 74.9782C-0.760669 69.8208 4.16066 69.5188 5.03911 66.3484C7.067 59.0288 2.13148 59.1359 1.26529 53.5306C0.431682 48.1346 3.67869 48.5047 4.52101 45.1103C6.17855 38.4383 1.97373 37.1623 0.770092 32.2339C-0.423221 27.3492 4.0729 28.1333 5.23041 24.1399C7.28701 17.0467 0.944263 15.835 0.477454 10.8525C-1.74794 1.53095 4.46346 -0.662454 5.62753 2.05491C8.09154 7.80681 12.4983 6.6093 14.1204 6.1685L14.1538 6.15941C17.8415 5.15768 19.1079 -1.04711 24.1742 1.19064C26.4406 2.19198 28.71 7.32176 32.6566 5.89853C36.7924 4.04849 37.3978 -1.04445 43.4574 1.14545C45.7371 1.96908 45.0677 5.31033 47.9221 5.9141C49.6722 6.28472 51.6921 6.53306 53.3619 5.46184C56.3388 3.18423 55.6296 0.594473 60.0281 0.0199422C64.1456 1.22141 62.3575 8.49019 69.8639 6.38915C72.1689 5.74437 74.2404 0.744455 77.943 1.75264C84.7535 4.91844 85.6666 11.7809 92.7503 0.957863C99.6436 1.23051 97.0217 1.99454 102.148 5.30805C107.492 8.76245 109.712 0.689774 113.99 0.678003C118.045 0.38713 117.813 5.90119 122.034 5.98549C126.756 6.65951 127.501 0.897112 131.715 0.992044C136.171 1.09191 135.084 5.98321 139.164 6.83305C145.412 8.134 144.391 2.08452 150.21 1.13634C154.271 1.90795 154.305 8.93409 160.813 5.92208C162.578 5.10528 164.629 0.176003 168.544 0.99432C172.409 1.80162 172.19 8.64815 178.905 6.13282C181.59 5.1273 182.844 0.335866 187.222 1.16823C191.18 1.92048 190.657 8.59233 196.779 6.46357C199.394 5.5545 200.973 0.790783 204.966 1.56771C209.089 2.37008 208.243 9.599 215.456 7.17443C218.794 6.05271 217.711 0.43536 222.931 1.11242C227.164 1.66189 228.193 9.12776 234.219 6.70698C237.612 5.34452 236.946 0.0522121 241.095 1.45683C245.283 2.8736 246.367 7.823 252.035 5.87195C254.919 4.88048 254.604 1.0585 259.188 2.03972C263.951 3.05929 263.859 8.86878 270.078 6.4818C272.771 5.4478 273.028 -0.344982 277.409 0.794965C280.955 1.71809 282.06 8.14957 287.55 5.84499C289.553 5.00503 293.219 0.701544 295.391 1.61176C298.837 3.05321 299.983 8.32614 305.809 6.09068C307.609 5.39995 308.217 3.86052 309.102 2.17794C310.472 1.82669 313.657 0.759648 314.766 1.69416C317.6 4.07469 317.451 6.85242 322.189 6.83647C326.305 6.8228 326.376 1.48948 329.479 0.998874C334.212 0.250428 334.373 6.69863 339.549 6.46472C344.568 6.23802 344.303 1.38127 349.028 1.07368C349.645 0.984828 351.035 1.20507 351.457 1.63606C354.175 4.40885 353.41 7.76415 358.61 7.71517C363.443 7.6696 362.326 1.8639 366.91 1.71277C369.79 1.61783 371.399 4.52353 373.542 5.82942C378.155 8.23463 380.3 6.4016 382 4.01994C382 4.01994 382.483 1.88678 382.792 0.519942C383.708 -0.400391 387.01 0.0964906 387.708 0.519942C391.03 2.53706 392.562 9.04612 397.415 6.5775C399.504 5.51615 400.353 0.719017 403.422 1.13368C406.931 1.60834 410.729 9.30053 415.284 6.77191C417.026 5.8036 418.836 5.03538 419.208 3.25255Z" fill="#15AB64"/>
<rect x="25" y="22" width="408" height="77" rx="33" fill="#F0F6F5"/>
<path d="M175.325 43.836C175.325 43.5187 175.269 43.248 175.157 43.024C175.045 42.8 174.9 42.5993 174.723 42.422C174.545 42.2353 174.359 42.058 174.163 41.89C173.948 41.7033 173.738 41.5073 173.533 41.302C173.337 41.0967 173.173 40.8587 173.043 40.588C172.921 40.3173 172.861 39.9907 172.861 39.608C172.861 39.0947 172.977 38.67 173.211 38.334C173.444 37.9887 173.771 37.7273 174.191 37.55C174.62 37.3727 175.11 37.284 175.661 37.284C176.529 37.284 177.224 37.522 177.747 37.998C178.269 38.474 178.54 39.146 178.559 40.014L177.145 40.056C177.135 39.664 177.014 39.3747 176.781 39.188C176.557 38.992 176.183 38.894 175.661 38.894C175.147 38.894 174.788 38.9593 174.583 39.09C174.377 39.2207 174.275 39.3933 174.275 39.608C174.275 39.72 174.293 39.818 174.331 39.902C174.368 39.9767 174.443 40.07 174.555 40.182C174.676 40.294 174.858 40.4573 175.101 40.672C175.474 40.9987 175.777 41.3207 176.011 41.638C176.253 41.9553 176.435 42.2913 176.557 42.646C176.678 42.9913 176.739 43.388 176.739 43.836H175.325ZM175.955 45.348C176.207 45.348 176.417 45.432 176.585 45.6C176.753 45.7587 176.837 45.9687 176.837 46.23C176.837 46.4913 176.753 46.706 176.585 46.874C176.417 47.042 176.207 47.126 175.955 47.126C175.703 47.126 175.493 47.042 175.325 46.874C175.157 46.706 175.073 46.4913 175.073 46.23C175.073 45.9687 175.157 45.7587 175.325 45.6C175.493 45.432 175.703 45.348 175.955 45.348ZM189.778 47V45.39H192.144V47H189.778ZM183.688 47C182.988 47 182.376 46.902 181.854 46.706C181.34 46.5007 180.916 46.2253 180.58 45.88C180.244 45.5347 179.992 45.1427 179.824 44.704C179.665 44.2653 179.586 43.808 179.586 43.332C179.586 42.884 179.651 42.436 179.782 41.988C179.912 41.54 180.108 41.1153 180.37 40.714L181.532 41.232C181.345 41.6053 181.21 41.96 181.126 42.296C181.042 42.6227 181 42.9307 181 43.22C181 43.696 181.102 44.0973 181.308 44.424C181.513 44.7413 181.816 44.984 182.218 45.152C182.619 45.3107 183.109 45.39 183.688 45.39H189.064V35.52H190.478V47H183.688ZM192.144 47V45.39C192.246 45.39 192.316 45.4647 192.354 45.614C192.4 45.754 192.424 45.9453 192.424 46.188C192.424 46.4307 192.4 46.6267 192.354 46.776C192.316 46.9253 192.246 47 192.144 47ZM183.814 41.792V40.924C184.215 40.924 184.635 40.9007 185.074 40.854C185.522 40.798 185.886 40.7327 186.166 40.658L186.096 40.756L184.822 40.294C184.598 40.21 184.434 40.1027 184.332 39.972C184.238 39.832 184.192 39.6873 184.192 39.538C184.192 39.2487 184.29 38.964 184.486 38.684C184.682 38.404 184.957 38.1707 185.312 37.984C185.666 37.788 186.082 37.69 186.558 37.69V38.544C186.203 38.544 185.895 38.6093 185.634 38.74C185.372 38.8613 185.172 39.0153 185.032 39.202C184.892 39.3887 184.822 39.58 184.822 39.776L184.458 39.23L186.068 39.818C186.338 39.9113 186.525 40.0327 186.628 40.182C186.74 40.322 186.796 40.4573 186.796 40.588C186.796 40.7373 186.758 40.882 186.684 41.022C186.618 41.162 186.483 41.2927 186.278 41.414C186.072 41.526 185.769 41.6193 185.368 41.694C184.976 41.7593 184.458 41.792 183.814 41.792ZM192.147 47V45.39H192.861C193.263 45.39 193.561 45.362 193.757 45.306C193.953 45.2407 194.084 45.124 194.149 44.956C194.215 44.788 194.247 44.5453 194.247 44.228V40.252H195.661V44.228C195.661 44.8533 195.563 45.3713 195.367 45.782C195.171 46.1927 194.868 46.5007 194.457 46.706C194.047 46.902 193.515 47 192.861 47H192.147ZM197.047 47C196.394 47 195.862 46.902 195.451 46.706C195.041 46.5007 194.737 46.1927 194.541 45.782C194.345 45.3713 194.247 44.8533 194.247 44.228H195.661C195.661 44.5453 195.694 44.788 195.759 44.956C195.825 45.124 195.955 45.2407 196.151 45.306C196.357 45.362 196.655 45.39 197.047 45.39H197.621V47H197.047ZM197.621 47V45.39C197.724 45.39 197.794 45.4647 197.831 45.614C197.878 45.754 197.901 45.9453 197.901 46.188C197.901 46.4307 197.878 46.6267 197.831 46.776C197.794 46.9253 197.724 47 197.621 47ZM192.147 47C192.045 47 191.975 46.9253 191.937 46.776C191.891 46.6267 191.867 46.426 191.867 46.174C191.867 45.9313 191.891 45.74 191.937 45.6C191.975 45.46 192.045 45.39 192.147 45.39V47ZM195.955 38.544C195.713 38.544 195.507 38.4647 195.339 38.306C195.181 38.138 195.101 37.9327 195.101 37.69C195.101 37.438 195.181 37.2327 195.339 37.074C195.507 36.9153 195.713 36.836 195.955 36.836C196.198 36.836 196.399 36.9153 196.557 37.074C196.725 37.2327 196.809 37.438 196.809 37.69C196.809 37.9327 196.725 38.138 196.557 38.306C196.399 38.4647 196.198 38.544 195.955 38.544ZM193.967 38.544C193.725 38.544 193.519 38.4647 193.351 38.306C193.193 38.138 193.113 37.9327 193.113 37.69C193.113 37.438 193.193 37.2327 193.351 37.074C193.519 36.9153 193.725 36.836 193.967 36.836C194.21 36.836 194.411 36.9153 194.569 37.074C194.737 37.2327 194.821 37.438 194.821 37.69C194.821 37.9327 194.737 38.138 194.569 38.306C194.411 38.4647 194.21 38.544 193.967 38.544ZM199.576 40.252H200.99V47H197.616V45.39H199.576V40.252ZM197.616 47C197.514 47 197.444 46.9253 197.406 46.776C197.36 46.6267 197.336 46.426 197.336 46.174C197.336 45.9313 197.36 45.74 197.406 45.6C197.444 45.46 197.514 45.39 197.616 45.39V47ZM199.744 50.752C199.483 50.752 199.259 50.6587 199.072 50.472C198.895 50.2947 198.806 50.0753 198.806 49.814C198.806 49.5433 198.895 49.3193 199.072 49.142C199.259 48.9647 199.483 48.876 199.744 48.876C200.015 48.876 200.239 48.9647 200.416 49.142C200.594 49.3193 200.682 49.5433 200.682 49.814C200.682 50.0753 200.594 50.2947 200.416 50.472C200.239 50.6587 200.015 50.752 199.744 50.752ZM204.697 47V45.39H206.755V47H204.697ZM201.827 49.17C202.275 49.1793 202.634 49.1327 202.905 49.03C203.176 48.9367 203.372 48.7733 203.493 48.54C203.614 48.3067 203.675 48.008 203.675 47.644V40.252H205.089V47.644C205.089 48.288 204.968 48.8387 204.725 49.296C204.482 49.7533 204.137 50.1033 203.689 50.346C203.25 50.5887 202.718 50.7147 202.093 50.724L201.827 49.17ZM206.755 47V45.39C206.858 45.39 206.928 45.4647 206.965 45.614C207.012 45.754 207.035 45.9453 207.035 46.188C207.035 46.4307 207.012 46.6267 206.965 46.776C206.928 46.9253 206.858 47 206.755 47ZM214.029 47V45.39H216.003V47H214.029ZM206.749 47C206.646 47 206.576 46.9253 206.539 46.776C206.492 46.6267 206.469 46.426 206.469 46.174C206.469 45.9313 206.492 45.74 206.539 45.6C206.576 45.46 206.646 45.39 206.749 45.39V47ZM212.923 47V43.332C212.923 42.9027 212.811 42.5293 212.587 42.212C212.372 41.8853 212.06 41.6333 211.649 41.456C211.238 41.2693 210.748 41.176 210.179 41.176C209.731 41.176 209.292 41.2273 208.863 41.33C208.443 41.4327 208.074 41.5587 207.757 41.708L207.183 40.434C207.64 40.1447 208.126 39.93 208.639 39.79C209.152 39.6407 209.675 39.566 210.207 39.566C210.814 39.566 211.369 39.6593 211.873 39.846C212.377 40.0233 212.811 40.28 213.175 40.616C213.548 40.952 213.833 41.3533 214.029 41.82C214.234 42.2773 214.337 42.7813 214.337 43.332V47H212.923ZM206.749 47V45.39H214.953L214.701 47H206.749ZM216.003 47V45.39C216.106 45.39 216.176 45.4647 216.213 45.614C216.26 45.754 216.283 45.9453 216.283 46.188C216.283 46.4307 216.26 46.6267 216.213 46.776C216.176 46.9253 216.106 47 216.003 47ZM210.417 50.752C210.156 50.752 209.932 50.6587 209.745 50.472C209.568 50.2947 209.479 50.0753 209.479 49.814C209.479 49.5433 209.568 49.3193 209.745 49.142C209.932 48.9647 210.156 48.876 210.417 48.876C210.688 48.876 210.912 48.9647 211.089 49.142C211.266 49.3193 211.355 49.5433 211.355 49.814C211.355 50.0753 211.266 50.2947 211.089 50.472C210.912 50.6587 210.688 50.752 210.417 50.752ZM217.965 40.252H219.379V47H216.005V45.39H217.965V40.252ZM216.005 47C215.902 47 215.832 46.9253 215.795 46.776C215.748 46.6267 215.725 46.426 215.725 46.174C215.725 45.9313 215.748 45.74 215.795 45.6C215.832 45.46 215.902 45.39 216.005 45.39V47ZM219.673 38.544C219.43 38.544 219.225 38.4647 219.057 38.306C218.898 38.138 218.819 37.9327 218.819 37.69C218.819 37.438 218.898 37.2327 219.057 37.074C219.225 36.9153 219.43 36.836 219.673 36.836C219.916 36.836 220.116 36.9153 220.275 37.074C220.443 37.2327 220.527 37.438 220.527 37.69C220.527 37.9327 220.443 38.138 220.275 38.306C220.116 38.4647 219.916 38.544 219.673 38.544ZM217.685 38.544C217.442 38.544 217.237 38.4647 217.069 38.306C216.91 38.138 216.831 37.9327 216.831 37.69C216.831 37.438 216.91 37.2327 217.069 37.074C217.237 36.9153 217.442 36.836 217.685 36.836C217.928 36.836 218.128 36.9153 218.287 37.074C218.455 37.2327 218.539 37.438 218.539 37.69C218.539 37.9327 218.455 38.138 218.287 38.306C218.128 38.4647 217.928 38.544 217.685 38.544ZM233.856 47C233.249 47 232.75 46.902 232.358 46.706C231.966 46.5007 231.672 46.1927 231.476 45.782C231.289 45.3713 231.196 44.8533 231.196 44.228V43.892H232.47V44.228C232.47 44.5453 232.503 44.788 232.568 44.956C232.633 45.124 232.764 45.2407 232.96 45.306C233.165 45.362 233.464 45.39 233.856 45.39H234.43V47H233.856ZM225.064 51.872C225.027 51.564 224.985 51.2187 224.938 50.836C224.901 50.4627 224.859 50.08 224.812 49.688C224.775 49.3053 224.742 48.9507 224.714 48.624C224.695 48.3067 224.686 48.05 224.686 47.854C224.686 47.4527 224.742 47.0793 224.854 46.734C224.975 46.3887 225.139 46.0853 225.344 45.824C225.559 45.5533 225.811 45.3433 226.1 45.194C226.399 45.0447 226.721 44.97 227.066 44.97C227.262 44.97 227.533 44.9933 227.878 45.04C228.233 45.0867 228.629 45.1473 229.068 45.222C229.516 45.2967 229.978 45.3807 230.454 45.474C230.939 45.558 231.411 45.6467 231.868 45.74L231.63 47.196C231.182 47.1027 230.725 47.014 230.258 46.93C229.791 46.8367 229.348 46.7573 228.928 46.692C228.508 46.6173 228.139 46.5613 227.822 46.524C227.514 46.4773 227.29 46.454 227.15 46.454C226.954 46.454 226.767 46.5007 226.59 46.594C226.413 46.678 226.263 46.8227 226.142 47.028C226.03 47.2427 225.974 47.532 225.974 47.896C225.974 48.064 225.988 48.3067 226.016 48.624C226.044 48.9507 226.077 49.31 226.114 49.702C226.161 50.094 226.207 50.4813 226.254 50.864C226.301 51.2467 226.343 51.5827 226.38 51.872H225.064ZM231.63 47.196L230.398 46.398C230.613 46.0247 230.776 45.6233 230.888 45.194C231 44.7647 231.056 44.3307 231.056 43.892C231.056 43.2013 230.944 42.6927 230.72 42.366C230.496 42.0393 230.169 41.876 229.74 41.876C229.469 41.876 229.213 41.946 228.97 42.086C228.737 42.2167 228.489 42.45 228.228 42.786C227.967 43.1127 227.659 43.5747 227.304 44.172L226.086 43.36C226.301 42.9867 226.529 42.618 226.772 42.254C227.015 41.89 227.281 41.5587 227.57 41.26C227.859 40.9613 228.181 40.7233 228.536 40.546C228.891 40.3593 229.292 40.266 229.74 40.266C230.235 40.266 230.655 40.3733 231 40.588C231.355 40.7933 231.639 41.0733 231.854 41.428C232.069 41.7733 232.223 42.1607 232.316 42.59C232.419 43.0193 232.47 43.4533 232.47 43.892C232.47 44.368 232.405 44.9093 232.274 45.516C232.143 46.1133 231.929 46.6733 231.63 47.196ZM234.43 47V45.39C234.533 45.39 234.603 45.4647 234.64 45.614C234.687 45.754 234.71 45.9453 234.71 46.188C234.71 46.4307 234.687 46.6267 234.64 46.776C234.603 46.9253 234.533 47 234.43 47ZM234.435 47V45.39H235.149C235.55 45.39 235.849 45.362 236.045 45.306C236.241 45.2407 236.371 45.124 236.437 44.956C236.502 44.788 236.535 44.5453 236.535 44.228V40.252H237.949V44.228C237.949 44.8533 237.851 45.3713 237.655 45.782C237.459 46.1927 237.155 46.5007 236.745 46.706C236.334 46.902 235.802 47 235.149 47H234.435ZM239.335 47C238.681 47 238.149 46.902 237.739 46.706C237.328 46.5007 237.025 46.1927 236.829 45.782C236.633 45.3713 236.535 44.8533 236.535 44.228H237.949C237.949 44.5453 237.981 44.788 238.047 44.956C238.112 45.124 238.243 45.2407 238.439 45.306C238.644 45.362 238.943 45.39 239.335 45.39H239.909V47H239.335ZM239.909 47V45.39C240.011 45.39 240.081 45.4647 240.119 45.614C240.165 45.754 240.189 45.9453 240.189 46.188C240.189 46.4307 240.165 46.6267 240.119 46.776C240.081 46.9253 240.011 47 239.909 47ZM234.435 47C234.332 47 234.262 46.9253 234.225 46.776C234.178 46.6267 234.155 46.426 234.155 46.174C234.155 45.9313 234.178 45.74 234.225 45.6C234.262 45.46 234.332 45.39 234.435 45.39V47ZM238.243 50.416C238 50.416 237.795 50.332 237.627 50.164C237.468 49.996 237.389 49.7953 237.389 49.562C237.389 49.31 237.468 49.1047 237.627 48.946C237.795 48.7873 238 48.708 238.243 48.708C238.485 48.708 238.686 48.7873 238.845 48.946C239.013 49.1047 239.097 49.31 239.097 49.562C239.097 49.7953 239.013 49.996 238.845 50.164C238.686 50.332 238.485 50.416 238.243 50.416ZM236.255 50.416C236.012 50.416 235.807 50.332 235.639 50.164C235.48 49.996 235.401 49.7953 235.401 49.562C235.401 49.31 235.48 49.1047 235.639 48.946C235.807 48.7873 236.012 48.708 236.255 48.708C236.497 48.708 236.698 48.7873 236.857 48.946C237.025 49.1047 237.109 49.31 237.109 49.562C237.109 49.7953 237.025 49.996 236.857 50.164C236.698 50.332 236.497 50.416 236.255 50.416ZM239.903 47V45.39C240.398 45.39 240.869 45.376 241.317 45.348C241.775 45.32 242.199 45.278 242.591 45.222C242.638 45.2127 242.68 45.2407 242.717 45.306C242.755 45.362 242.792 45.418 242.829 45.474C242.876 45.5207 242.918 45.544 242.955 45.544C243.674 45.404 244.281 45.2173 244.775 44.984C245.27 44.7507 245.648 44.48 245.909 44.172C246.171 43.864 246.301 43.5233 246.301 43.15C246.301 42.814 246.222 42.5153 246.063 42.254C245.905 41.9927 245.685 41.7873 245.405 41.638C245.125 41.4887 244.799 41.414 244.425 41.414C244.061 41.414 243.735 41.4887 243.445 41.638C243.165 41.7873 242.946 41.9927 242.787 42.254C242.629 42.506 242.549 42.8 242.549 43.136C242.549 43.5093 242.685 43.8593 242.955 44.186C243.235 44.5033 243.637 44.7787 244.159 45.012C244.682 45.2453 245.321 45.4273 246.077 45.558C246.124 45.5673 246.166 45.544 246.203 45.488C246.241 45.432 246.278 45.376 246.315 45.32C246.362 45.2547 246.404 45.2267 246.441 45.236C246.815 45.2827 247.207 45.32 247.617 45.348C248.037 45.376 248.476 45.39 248.933 45.39V47C247.795 47 246.749 46.9207 245.797 46.762C244.845 46.6033 244.019 46.3653 243.319 46.048C242.629 45.7213 242.092 45.306 241.709 44.802C241.327 44.2887 241.135 43.682 241.135 42.982C241.135 42.3567 241.28 41.806 241.569 41.33C241.868 40.854 242.265 40.4807 242.759 40.21C243.263 39.9393 243.819 39.804 244.425 39.804C245.032 39.804 245.583 39.9393 246.077 40.21C246.572 40.4713 246.969 40.8447 247.267 41.33C247.566 41.806 247.715 42.3613 247.715 42.996C247.715 43.6307 247.561 44.1767 247.253 44.634C246.955 45.0913 246.544 45.474 246.021 45.782C245.508 46.0807 244.915 46.3233 244.243 46.51C243.571 46.6873 242.862 46.8133 242.115 46.888C241.378 46.9627 240.641 47 239.903 47ZM248.933 47V45.39C249.036 45.39 249.106 45.4647 249.143 45.614C249.19 45.754 249.213 45.9453 249.213 46.188C249.213 46.4307 249.19 46.6267 249.143 46.776C249.106 46.9253 249.036 47 248.933 47ZM239.903 47C239.801 47 239.731 46.9253 239.693 46.776C239.647 46.6267 239.623 46.426 239.623 46.174C239.623 45.9313 239.647 45.74 239.693 45.6C239.731 45.46 239.801 45.39 239.903 45.39V47ZM245.419 38.096C245.177 38.096 244.971 38.0167 244.803 37.858C244.645 37.69 244.565 37.4847 244.565 37.242C244.565 36.99 244.645 36.7847 244.803 36.626C244.971 36.4673 245.177 36.388 245.419 36.388C245.662 36.388 245.863 36.4673 246.021 36.626C246.189 36.7847 246.273 36.99 246.273 37.242C246.273 37.4847 246.189 37.69 246.021 37.858C245.863 38.0167 245.662 38.096 245.419 38.096ZM243.431 38.096C243.189 38.096 242.983 38.0167 242.815 37.858C242.657 37.69 242.577 37.4847 242.577 37.242C242.577 36.99 242.657 36.7847 242.815 36.626C242.983 36.4673 243.189 36.388 243.431 36.388C243.674 36.388 243.875 36.4673 244.033 36.626C244.201 36.7847 244.285 36.99 244.285 37.242C244.285 37.4847 244.201 37.69 244.033 37.858C243.875 38.0167 243.674 38.096 243.431 38.096ZM250.887 40.252H252.301V47H248.927V45.39H250.887V40.252ZM248.927 47C248.824 47 248.754 46.9253 248.717 46.776C248.67 46.6267 248.647 46.426 248.647 46.174C248.647 45.9313 248.67 45.74 248.717 45.6C248.754 45.46 248.824 45.39 248.927 45.39V47ZM252.595 38.544C252.352 38.544 252.147 38.4647 251.979 38.306C251.82 38.138 251.741 37.9327 251.741 37.69C251.741 37.438 251.82 37.2327 251.979 37.074C252.147 36.9153 252.352 36.836 252.595 36.836C252.837 36.836 253.038 36.9153 253.197 37.074C253.365 37.2327 253.449 37.438 253.449 37.69C253.449 37.9327 253.365 38.138 253.197 38.306C253.038 38.4647 252.837 38.544 252.595 38.544ZM250.607 38.544C250.364 38.544 250.159 38.4647 249.991 38.306C249.832 38.138 249.753 37.9327 249.753 37.69C249.753 37.438 249.832 37.2327 249.991 37.074C250.159 36.9153 250.364 36.836 250.607 36.836C250.849 36.836 251.05 36.9153 251.209 37.074C251.377 37.2327 251.461 37.438 251.461 37.69C251.461 37.9327 251.377 38.138 251.209 38.306C251.05 38.4647 250.849 38.544 250.607 38.544ZM262.956 47V45.39H265.644V47H262.956ZM265.644 47V45.39C265.747 45.39 265.817 45.4647 265.854 45.614C265.901 45.754 265.924 45.9453 265.924 46.188C265.924 46.4307 265.901 46.6267 265.854 46.776C265.817 46.9253 265.747 47 265.644 47ZM263.11 47C263.101 46.0013 262.923 45.11 262.578 44.326C262.233 43.542 261.738 42.8887 261.094 42.366C260.459 41.8433 259.694 41.4793 258.798 41.274L259.12 39.706C260.221 39.958 261.173 40.4247 261.976 41.106C262.779 41.778 263.399 42.618 263.838 43.626C264.286 44.6247 264.515 45.7493 264.524 47H263.11ZM257.608 47V45.39H264.23V47H257.608ZM272.983 47C272.33 47 271.798 46.902 271.387 46.706C270.977 46.5007 270.673 46.1927 270.477 45.782C270.281 45.3713 270.183 44.8533 270.183 44.228V44.2H271.597V44.228C271.597 44.5453 271.63 44.788 271.695 44.956C271.761 45.124 271.891 45.2407 272.087 45.306C272.293 45.362 272.591 45.39 272.983 45.39H273.557V47H272.983ZM265.647 47C265.545 47 265.475 46.9253 265.437 46.776C265.391 46.6267 265.367 46.426 265.367 46.174C265.367 45.9313 265.391 45.74 265.437 45.6C265.475 45.46 265.545 45.39 265.647 45.39V47ZM265.647 47V45.39H268.083C268.531 45.39 268.909 45.3387 269.217 45.236C269.535 45.124 269.773 44.9793 269.931 44.802C270.099 44.6153 270.183 44.41 270.183 44.186C270.183 44.0367 270.141 43.8827 270.057 43.724C269.983 43.5653 269.829 43.374 269.595 43.15C269.371 42.926 269.035 42.6413 268.587 42.296C268.139 41.9413 267.542 41.498 266.795 40.966L266.095 40.434L267.033 39.216L268.013 39.944C268.62 40.392 269.147 40.7933 269.595 41.148C270.053 41.4933 270.426 41.8247 270.715 42.142C271.014 42.4593 271.233 42.7813 271.373 43.108C271.523 43.4347 271.597 43.794 271.597 44.186C271.597 44.7833 271.443 45.292 271.135 45.712C270.827 46.132 270.407 46.454 269.875 46.678C269.343 46.8927 268.746 47 268.083 47H265.647ZM266.095 40.434V38.698L272.157 35.898V37.648L266.095 40.434ZM273.557 47V45.39C273.66 45.39 273.73 45.4647 273.767 45.614C273.814 45.754 273.837 45.9453 273.837 46.188C273.837 46.4307 273.814 46.6267 273.767 46.776C273.73 46.9253 273.66 47 273.557 47ZM282.089 47C281.781 47 281.478 46.944 281.179 46.832C280.89 46.72 280.624 46.5427 280.381 46.3C280.139 46.048 279.947 45.7307 279.807 45.348L280.745 44.704C280.829 44.9467 280.979 45.1333 281.193 45.264C281.417 45.3947 281.651 45.46 281.893 45.46C282.192 45.46 282.463 45.362 282.705 45.166C282.948 44.9607 283.069 44.648 283.069 44.228V40.252H284.483V44.228C284.483 44.8533 284.367 45.3713 284.133 45.782C283.9 46.1927 283.601 46.5007 283.237 46.706C282.873 46.902 282.491 47 282.089 47ZM273.563 47V45.39H274.263C274.665 45.39 274.963 45.362 275.159 45.306C275.355 45.2407 275.486 45.124 275.551 44.956C275.617 44.788 275.649 44.5453 275.649 44.228V41.638H277.063V44.228C277.063 44.8533 276.965 45.3713 276.769 45.782C276.573 46.1927 276.27 46.5007 275.859 46.706C275.449 46.902 274.917 47 274.263 47H273.563ZM278.379 47C278.071 47 277.768 46.944 277.469 46.832C277.18 46.72 276.914 46.5427 276.671 46.3C276.429 46.048 276.237 45.7307 276.097 45.348L277.035 44.704C277.119 44.9467 277.269 45.1333 277.483 45.264C277.707 45.3947 277.941 45.46 278.183 45.46C278.482 45.46 278.753 45.362 278.995 45.166C279.238 44.9607 279.359 44.648 279.359 44.228V40.938H280.773V44.228C280.773 44.8533 280.657 45.3713 280.423 45.782C280.19 46.1927 279.891 46.5007 279.527 46.706C279.163 46.902 278.781 47 278.379 47ZM273.563 47C273.461 47 273.391 46.9253 273.353 46.776C273.307 46.6267 273.283 46.426 273.283 46.174C273.283 45.9313 273.307 45.74 273.353 45.6C273.391 45.46 273.461 45.39 273.563 45.39V47ZM280.017 35.1C280.26 35.1 280.461 35.184 280.619 35.352C280.787 35.5107 280.871 35.7113 280.871 35.954C280.871 36.206 280.787 36.4113 280.619 36.57C280.461 36.7287 280.26 36.808 280.017 36.808C279.784 36.808 279.583 36.7287 279.415 36.57C279.247 36.4113 279.163 36.206 279.163 35.954C279.163 35.7113 279.247 35.5107 279.415 35.352C279.583 35.184 279.784 35.1 280.017 35.1ZM281.011 36.822C281.254 36.822 281.455 36.906 281.613 37.074C281.781 37.2327 281.865 37.4333 281.865 37.676C281.865 37.928 281.781 38.1333 281.613 38.292C281.455 38.4507 281.254 38.53 281.011 38.53C280.769 38.53 280.563 38.4507 280.395 38.292C280.237 38.1333 280.157 37.928 280.157 37.676C280.157 37.4333 280.237 37.2327 280.395 37.074C280.563 36.906 280.769 36.822 281.011 36.822ZM279.023 36.822C279.266 36.822 279.467 36.906 279.625 37.074C279.793 37.2327 279.877 37.4333 279.877 37.676C279.877 37.928 279.793 38.1333 279.625 38.292C279.467 38.4507 279.266 38.53 279.023 38.53C278.781 38.53 278.575 38.4507 278.407 38.292C278.249 38.1333 278.169 37.928 278.169 37.676C278.169 37.4333 278.249 37.2327 278.407 37.074C278.575 36.906 278.781 36.822 279.023 36.822Z" fill="#191D31"/>
</svg>
