<svg width="24" height="24" viewBox="0 0 24 24" fill="none" xmlns="http://www.w3.org/2000/svg">
<path d="M17 12C17 13.3261 16.4732 14.5979 15.5355 15.5355C14.5979 16.4732 13.3261 17 12 17C10.6739 17 9.40215 16.4732 8.46447 15.5355C7.52678 14.5979 7 13.3261 7 12C7 10.6739 7.52678 9.40215 8.46447 8.46447C9.40215 7.52678 10.6739 7 12 7C13.3261 7 14.5979 7.52678 15.5355 8.46447C16.4732 9.40215 17 10.6739 17 12Z" fill="#FFD000"/>
<path fill-rule="evenodd" clip-rule="evenodd" d="M12 1.25C12.1989 1.25 12.3897 1.32902 12.5303 1.46967C12.671 1.61032 12.75 1.80109 12.75 2V4C12.75 4.19891 12.671 4.38968 12.5303 4.53033C12.3897 4.67098 12.1989 4.75 12 4.75C11.8011 4.75 11.6103 4.67098 11.4697 4.53033C11.329 4.38968 11.25 4.19891 11.25 4V2C11.25 1.80109 11.329 1.61032 11.4697 1.46967C11.6103 1.32902 11.8011 1.25 12 1.25ZM1.25 12C1.25 11.8011 1.32902 11.6103 1.46967 11.4697C1.61032 11.329 1.80109 11.25 2 11.25H4C4.19891 11.25 4.38968 11.329 4.53033 11.4697C4.67098 11.6103 4.75 11.8011 4.75 12C4.75 12.1989 4.67098 12.3897 4.53033 12.5303C4.38968 12.671 4.19891 12.75 4 12.75H2C1.80109 12.75 1.61032 12.671 1.46967 12.5303C1.32902 12.3897 1.25 12.1989 1.25 12ZM19.25 12C19.25 11.8011 19.329 11.6103 19.4697 11.4697C19.6103 11.329 19.8011 11.25 20 11.25H22C22.1989 11.25 22.3897 11.329 22.5303 11.4697C22.671 11.6103 22.75 11.8011 22.75 12C22.75 12.1989 22.671 12.3897 22.5303 12.5303C22.3897 12.671 22.1989 12.75 22 12.75H20C19.8011 12.75 19.6103 12.671 19.4697 12.5303C19.329 12.3897 19.25 12.1989 19.25 12ZM12 19.25C12.1989 19.25 12.3897 19.329 12.5303 19.4697C12.671 19.6103 12.75 19.8011 12.75 20V22C12.75 22.1989 12.671 22.3897 12.5303 22.5303C12.3897 22.671 12.1989 22.75 12 22.75C11.8011 22.75 11.6103 22.671 11.4697 22.5303C11.329 22.3897 11.25 22.1989 11.25 22V20C11.25 19.8011 11.329 19.6103 11.4697 19.4697C11.6103 19.329 11.8011 19.25 12 19.25Z" fill="#FFD000"/>
<path opacity="0.5" d="M3.67008 3.71513C3.80421 3.56843 3.99108 3.48097 4.18965 3.47197C4.38822 3.46297 4.58224 3.53316 4.72908 3.66713L6.95008 5.69913C7.0938 5.83411 7.17859 6.02025 7.18609 6.21727C7.1936 6.41429 7.12322 6.60635 6.99019 6.75187C6.85715 6.89739 6.67217 6.98467 6.47527 6.99483C6.27836 7.00498 6.08538 6.93719 5.93808 6.80613L3.71708 4.77413C3.64429 4.7077 3.58531 4.62758 3.5435 4.53835C3.5017 4.44911 3.47788 4.35252 3.47342 4.25408C3.46897 4.15563 3.48395 4.05728 3.51752 3.96463C3.5511 3.87199 3.6026 3.78686 3.66908 3.71413M20.3321 3.71513C20.3986 3.7878 20.4502 3.87287 20.4839 3.96548C20.5175 4.05809 20.5326 4.15643 20.5282 4.25487C20.5239 4.35331 20.5001 4.44992 20.4584 4.53919C20.4167 4.62846 20.3578 4.70863 20.2851 4.77513L18.0621 6.80513C17.9902 6.87557 17.9049 6.93081 17.8112 6.96758C17.7175 7.00434 17.6173 7.02187 17.5167 7.01913C17.4161 7.01638 17.3171 6.99341 17.2256 6.95159C17.134 6.90977 17.0518 6.84995 16.9839 6.7757C16.9159 6.70145 16.8636 6.61428 16.8301 6.51939C16.7965 6.4245 16.7824 6.32383 16.7886 6.22337C16.7948 6.12292 16.8211 6.02473 16.866 5.93467C16.911 5.8446 16.9736 5.7645 17.0501 5.69913L19.2721 3.66713C19.3448 3.60064 19.4299 3.54914 19.5226 3.51557C19.6152 3.482 19.7136 3.46701 19.812 3.47147C19.9105 3.47593 20.0071 3.49974 20.0963 3.54155C20.1855 3.58336 20.2657 3.64234 20.3321 3.71513ZM17.0261 17.0241C17.1667 16.8837 17.3573 16.8048 17.5561 16.8048C17.7548 16.8048 17.9455 16.8837 18.0861 17.0241L20.3091 19.2461C20.3807 19.3153 20.4378 19.3981 20.477 19.4897C20.5163 19.5812 20.5369 19.6796 20.5378 19.7792C20.5386 19.8788 20.5196 19.9775 20.4818 20.0697C20.4441 20.1618 20.3883 20.2455 20.3179 20.3159C20.2474 20.3863 20.1637 20.442 20.0715 20.4796C19.9793 20.5173 19.8805 20.5362 19.7809 20.5353C19.6813 20.5344 19.5829 20.5137 19.4915 20.4743C19.4 20.435 19.3172 20.3778 19.2481 20.3061L17.0261 18.0841C16.8856 17.9435 16.8067 17.7529 16.8067 17.5541C16.8067 17.3554 16.8856 17.1648 17.0261 17.0241ZM6.97508 17.0241C7.11553 17.1648 7.19442 17.3554 7.19442 17.5541C7.19442 17.7529 7.11553 17.9435 6.97508 18.0841L4.75308 20.3071C4.61091 20.4396 4.42286 20.5117 4.22856 20.5083C4.03426 20.5049 3.84887 20.4262 3.71146 20.2887C3.57405 20.1513 3.49534 19.966 3.49191 19.7717C3.48848 19.5773 3.5606 19.3893 3.69308 19.2471L5.91508 17.0241C6.05571 16.8837 6.24633 16.8048 6.44508 16.8048C6.64383 16.8048 6.83446 16.8837 6.97508 17.0241Z" fill="#FFD000"/>
</svg>
